<?xml version="1.0" encoding="UTF-8" standalone="no"?>
<!-- Created with Inkscape (http://www.inkscape.org/) -->

<svg
   xmlns:dc="http://purl.org/dc/elements/1.1/"
   xmlns:cc="http://creativecommons.org/ns#"
   xmlns:rdf="http://www.w3.org/1999/02/22-rdf-syntax-ns#"
   xmlns:svg="http://www.w3.org/2000/svg"
   xmlns="http://www.w3.org/2000/svg"
   xmlns:sodipodi="http://sodipodi.sourceforge.net/DTD/sodipodi-0.dtd"
   xmlns:inkscape="http://www.inkscape.org/namespaces/inkscape"
   width="100"
   height="500"
   id="svg2"
   version="1.1"
   inkscape:version="0.91 r"
   sodipodi:docname="icons.svg">
  <defs
     id="defs4" />
  <sodipodi:namedview
     id="base"
     pagecolor="#c8c8c8"
     bordercolor="#666666"
     borderopacity="1.0"
     inkscape:pageopacity="0"
     inkscape:pageshadow="2"
     inkscape:zoom="8"
     inkscape:cx="-12.081705"
     inkscape:cy="1094.8265"
     inkscape:document-units="px"
     inkscape:current-layer="svg2"
     showgrid="true"
     inkscape:window-width="1438"
     inkscape:window-height="879"
     inkscape:window-x="0"
     inkscape:window-y="19"
     inkscape:window-maximized="1"
     width="744.09px"
     inkscape:snap-page="false"
     objecttolerance="10"
     guidetolerance="10000"
     inkscape:snap-perpendicular="true"
     inkscape:snap-tangential="true"
     inkscape:snap-object-midpoints="false"
     inkscape:snap-intersection-paths="true"
     inkscape:object-nodes="true">
    <inkscape:grid
       type="xygrid"
       id="grid2985"
       empspacing="4"
       visible="true"
       enabled="true"
       snapvisiblegridlinesonly="true" />
  </sodipodi:namedview>
  <metadata
     id="metadata7">
    <rdf:RDF>
      <cc:Work
         rdf:about="">
        <dc:format>image/svg+xml</dc:format>
        <dc:type
           rdf:resource="http://purl.org/dc/dcmitype/StillImage" />
        <dc:title></dc:title>
      </cc:Work>
    </rdf:RDF>
  </metadata>
  <g
     inkscape:label="Layer 1"
     inkscape:groupmode="layer"
     id="layer1"
     transform="translate(0,-552.36218)" />
  <g
     id="g3118"
     transform="translate(-0.66437007,-554.20765)"
     style="stroke:#ffffff;stroke-opacity:1">
    <path
       inkscape:connector-curvature="0"
       id="path2989"
       d="m 25.66437,32.20765 5,-5 0,-10 -7,-6 -13.9999999,0 0,-3 5e-7,-8 -1.0000005,0 -13,11 0,2 13,11 1.0000005,0 0,-8 -5e-7,-3 13.9999999,0 5,4 0,5 0,5 -5,5 -14.9999999,0 -2,2 16.9999999,0 2,-2"
       style="fill:#ffffff;fill-opacity:1;stroke:#ffffff;stroke-width:2px;stroke-linecap:butt;stroke-linejoin:miter;stroke-opacity:1"
       inkscape:export-xdpi="508.60001"
       inkscape:export-ydpi="508.60001"
       sodipodi:nodetypes="ccccccccccccccccccccccc" />
  </g>
  <path
     style="fill:none;stroke:#ffffff;stroke-width:1px;stroke-linecap:butt;stroke-linejoin:miter;stroke-opacity:1"
     d="m 40.959646,-545.95964 0,2 -4,-2 4,-2 0,2 c 8,-1 8,6 0,6 l -2,0"
     id="path3097"
     inkscape:connector-curvature="0"
     sodipodi:nodetypes="cccccc"
     inkscape:export-xdpi="508"
     inkscape:export-ydpi="508" />
  <path
     style="fill:#ffffff;fill-rule:evenodd;stroke:#ffffff;stroke-width:1.70000005;stroke-linecap:butt;stroke-linejoin:round;stroke-miterlimit:4;stroke-dasharray:none;stroke-opacity:1;fill-opacity:1"
     d="m 52,-524 0,-3 -4,3 4,3 0,-3"
     id="path4175"
     inkscape:connector-curvature="0"
     sodipodi:nodetypes="ccccc"
     inkscape:export-xdpi="2000"
     inkscape:export-ydpi="2000" />
  <path
     style="fill:none;fill-rule:evenodd;stroke:#ffffff;stroke-width:2;stroke-linecap:butt;stroke-linejoin:round;stroke-opacity:1;stroke-miterlimit:4;stroke-dasharray:none;marker-end:"
     d="m 52,-518 4,0 2,-2 0,-2 -2,-2 -4,0"
     id="path4179"
     inkscape:connector-curvature="0"
     inkscape:export-xdpi="2000"
     inkscape:export-ydpi="2000" />
  <path
     style="fill:#ffffff;fill-rule:evenodd;stroke:#ffffff;stroke-width:0;stroke-linecap:butt;stroke-linejoin:miter;stroke-opacity:1;stroke-miterlimit:4;stroke-dasharray:none;fill-opacity:1"
     d="m 50,-517 2,-2 0,2 -2,0"
     id="path4511"
     inkscape:connector-curvature="0"
     inkscape:export-xdpi="2000"
     inkscape:export-ydpi="2000" />
  <path
     style="fill:#ffffff;fill-opacity:1;fill-rule:evenodd;stroke:#ffffff;stroke-width:1px;stroke-linecap:round;stroke-linejoin:round;stroke-opacity:1"
     d="m 74,-518 -11,0 0,-9 4,3 0,-3 4,3 0,-3 c 2.666667,0 0.333333,0 3,0 z"
     id="path4551"
     inkscape:connector-curvature="0"
     sodipodi:nodetypes="ccccccccc" />
  <path
     style="fill:none;fill-rule:evenodd;stroke:#ffffff;stroke-width:1.5;stroke-linecap:square;stroke-linejoin:bevel;stroke-opacity:1;stroke-miterlimit:4;stroke-dasharray:none"
     d="m 94,-525 2,-2 2,2"
     id="path4591"
     inkscape:connector-curvature="0"
     sodipodi:nodetypes="ccc"
     inkscape:export-xdpi="2000"
     inkscape:export-ydpi="2000" />
  <path
     style="fill:none;fill-rule:evenodd;stroke:#ffffff;stroke-width:1;stroke-linecap:square;stroke-linejoin:bevel;stroke-opacity:1;stroke-miterlimit:4;stroke-dasharray:none"
     d="m 95,-523 1,-1 1,1"
     id="path4593"
     inkscape:connector-curvature="0"
     sodipodi:nodetypes="ccc"
     inkscape:export-xdpi="2000"
     inkscape:export-ydpi="2000" />
  <path
     style="fill:none;fill-rule:evenodd;stroke:#000000;stroke-width:1px;stroke-linecap:butt;stroke-linejoin:miter;stroke-opacity:1"
     d="m 80,-526 0,4 4,2"
     id="path4595"
     inkscape:connector-curvature="0" />
  <path
     style="fill:none;fill-rule:evenodd;stroke:#000000;stroke-width:1px;stroke-linecap:butt;stroke-linejoin:miter;stroke-opacity:1"
     d="m 84,-520 4,-2 0,-4 0,-2 -4,-1 -4,1 0,2"
     id="path4597"
     inkscape:connector-curvature="0" />
  <path
     id="path4599"
     style="fill:none;fill-rule:evenodd;stroke:#ffffff;stroke-width:1.4;stroke-linecap:square;stroke-linejoin:bevel;stroke-opacity:1;stroke-miterlimit:4;stroke-dasharray:none"
     d="m 101,-528 -1,6 -4,2 -4,-2 -1,-6 5,-1 z"
     inkscape:connector-curvature="0"
     sodipodi:nodetypes="ccccccc"
     inkscape:export-xdpi="2000"
     inkscape:export-ydpi="2000" />
  <path
     style="fill:none;fill-rule:evenodd;stroke:#ffffff;stroke-width:1px;stroke-linecap:butt;stroke-linejoin:miter;stroke-opacity:1"
     d="m 114,-522 0,2"
     id="path4663"
     inkscape:connector-curvature="0"
     inkscape:export-xdpi="2000"
     inkscape:export-ydpi="2000" />
  <path
     id="path4667"
     style="fill:none;fill-rule:evenodd;stroke:#ffffff;stroke-width:1px;stroke-linecap:butt;stroke-linejoin:bevel;stroke-opacity:1"
     d="m 116,-523 2.18804,-0.9779 M 112,-523 l -2,-1 m 4,-4 0,2 m -2,3 2,-3 2,3 -2,1 z m 5.18804,-3.9779 1,5 L 114,-520 l -4,-2 1,-5 3,-1 z"
     inkscape:connector-curvature="0"
     sodipodi:nodetypes="cccccccccccscccccs"
     inkscape:export-xdpi="2000"
     inkscape:export-ydpi="2000" />
  <path
     style="fill:#ccff00;fill-rule:evenodd;stroke:#ccff00;stroke-width:1px;stroke-linecap:butt;stroke-linejoin:miter;stroke-opacity:1"
     d="m 56,-580 -2,2 0,2 -1,1 0,1 1,1 1,0 1,0 1,0 2,0 1,-1 0,-2 -1,-1 0,-1 -2,-2 z"
     id="path4670"
     inkscape:connector-curvature="0"
     sodipodi:nodetypes="cccccccccccccccc"
     inkscape:export-xdpi="2000"
     inkscape:export-ydpi="2000" />
  <path
     style="fill:#55ddff;fill-rule:evenodd;stroke:#55ddff;stroke-width:1px;stroke-linecap:butt;stroke-linejoin:miter;stroke-opacity:1;fill-opacity:1"
     d="m 66,-585 -2,2 0,2 -1,1 0,1 1,1 1,0 1,0 1,0 2,0 1,-1 0,-2 -1,-1 0,-1 -2,-2 z"
     id="path4670-9"
     inkscape:connector-curvature="0"
     sodipodi:nodetypes="cccccccccccccccc"
     inkscape:export-xdpi="2000"
     inkscape:export-ydpi="2000" />
  <path
     style="fill:#ff0066;fill-rule:evenodd;stroke:#ff0000;stroke-width:1px;stroke-linecap:butt;stroke-linejoin:miter;stroke-opacity:1;fill-opacity:1"
     d="m 76,-578 -2,2 0,2 -1,1 0,1 1,1 1,0 1,0 1,0 2,0 1,-1 0,-2 -1,-1 0,-1 -2,-2 z"
     id="path4670-4"
     inkscape:connector-curvature="0"
     sodipodi:nodetypes="cccccccccccccccc"
     inkscape:export-xdpi="2000"
     inkscape:export-ydpi="2000" />
  <path
     style="fill:none;fill-rule:evenodd;stroke:#ffffff;stroke-width:1px;stroke-linecap:butt;stroke-linejoin:miter;stroke-opacity:1"
     d="m 12,-592 8,4 8,-4 -8,-2 z"
     id="path4726"
     inkscape:connector-curvature="0"
     inkscape:export-xdpi="2000"
     inkscape:export-ydpi="2000" />
  <path
     style="fill:#ffffff;fill-opacity:1;fill-rule:evenodd;stroke:#ffffff;stroke-width:1px;stroke-linecap:butt;stroke-linejoin:miter;stroke-opacity:1"
     d="m 20,-591 0,0 c 3,0 4.588157,-1.9636 6,-3 l -4,-1 c 0,0 0,-2 -2,-2 -2,0 -2,2 -2,2 l -4,1 c 0,0 3,3 6,3 z"
     id="path4730"
     inkscape:connector-curvature="0"
     sodipodi:nodetypes="ccccsccc"
     inkscape:export-xdpi="2000"
     inkscape:export-ydpi="2000" />
  <path
     style="fill:none;fill-rule:evenodd;stroke:#ffffff;stroke-width:1px;stroke-linecap:round;stroke-linejoin:miter;stroke-opacity:1"
     d="m 15,-617 3,6 -3,-2 3,6 -4,-2 6,9 6,-9 -4,2 3,-6 -3,2 3,-6"
     id="path4738"
     inkscape:connector-curvature="0"
     sodipodi:nodetypes="ccccccccccc"
     inkscape:export-xdpi="2000"
     inkscape:export-ydpi="2000" />
</svg>
