<?xml version="1.0" encoding="UTF-8" standalone="no"?>
<!-- Created with Inkscape (http://www.inkscape.org/) -->

<svg
   xmlns:dc="http://purl.org/dc/elements/1.1/"
   xmlns:cc="http://creativecommons.org/ns#"
   xmlns:rdf="http://www.w3.org/1999/02/22-rdf-syntax-ns#"
   xmlns:svg="http://www.w3.org/2000/svg"
   xmlns="http://www.w3.org/2000/svg"
   xmlns:sodipodi="http://sodipodi.sourceforge.net/DTD/sodipodi-0.dtd"
   xmlns:inkscape="http://www.inkscape.org/namespaces/inkscape"
   width="210mm"
   height="297mm"
   id="svg2"
   version="1.1"
   inkscape:version="0.48.4 r9939"
   sodipodi:docname="screen_mockups.svg">
  <defs
     id="defs4" />
  <sodipodi:namedview
     id="base"
     pagecolor="#ffffff"
     bordercolor="#666666"
     borderopacity="1.0"
     inkscape:pageopacity="0.0"
     inkscape:pageshadow="2"
     inkscape:zoom="2.8"
     inkscape:cx="408.79066"
     inkscape:cy="949.38353"
     inkscape:document-units="px"
     inkscape:current-layer="layer1"
     showgrid="false"
     inkscape:window-width="1364"
     inkscape:window-height="747"
     inkscape:window-x="0"
     inkscape:window-y="19"
     inkscape:window-maximized="1" />
  <metadata
     id="metadata7">
    <rdf:RDF>
      <cc:Work
         rdf:about="">
        <dc:format>image/svg+xml</dc:format>
        <dc:type
           rdf:resource="http://purl.org/dc/dcmitype/StillImage" />
      </cc:Work>
    </rdf:RDF>
  </metadata>
  <g
     inkscape:label="Capa 1"
     inkscape:groupmode="layer"
     id="layer1">
    <path
       style="fill:none;stroke:#000000;stroke-width:1px;stroke-linecap:butt;stroke-linejoin:miter;stroke-opacity:1"
       d="M 16.785714,9.5050381 C 23.796157,17.994248 19.266302,122.69991 20,123.43361 c 4.643034,4.64303 50.014164,-3.74646 60.714286,-1.07143 3.038919,0.75973 22.704854,0.50943 22.142854,1.07143 -0.36625,0.36625 -0.35714,-2.47778 -0.35714,-2.85714 0,-6.86083 -1.78571,-12.59325 -1.78571,-19.64286 0,-16.519648 4.12329,-33.636917 1.78571,-50 -1.04121,-7.288489 2.8662,-36.419518 -1.07143,-40.357143 -1.583934,-1.5839357 -9.915455,1.785714 -11.785713,1.785714 -21.9587,0 -51.906776,-8.0947346 -72.857143,-2.8571429 z"
       id="path3017"
       inkscape:connector-curvature="0" />
    <path
       style="fill:none;stroke:#000000;stroke-width:1px;stroke-linecap:butt;stroke-linejoin:miter;stroke-opacity:1"
       d="m 62.142857,55.219324 c -1.306845,-0.395274 -8.201478,0.701478 -11.785714,4.285714 -8.580903,8.580903 8.024397,24.874559 17.857143,17.5 11.913464,-8.935098 6.541412,-29.812067 -10,-19.285714"
       id="path3057"
       inkscape:connector-curvature="0" />
    <path
       style="fill:none;stroke:#000000;stroke-width:1px;stroke-linecap:butt;stroke-linejoin:miter;stroke-opacity:1"
       d="m 62.857143,43.43361 c 2.108637,-0.06336 -2.934027,-3.851688 -4.642857,-2.142858 -3.634605,3.634605 0.526774,9.736613 5.714286,7.142858 6.088106,-3.044054 0.512011,-10.292578 -5,-7.142858"
       id="path3061"
       inkscape:connector-curvature="0" />
    <path
       style="fill:none;stroke:#000000;stroke-width:1px;stroke-linecap:butt;stroke-linejoin:miter;stroke-opacity:1"
       d="m 62.857143,27.362181 c 0.586787,-0.22567 -2.230985,-3.884507 -5.714286,-2.142857 -6.482696,3.241348 -0.543638,14.20039 6.428572,10.714286 7.900327,-3.950164 -0.430867,-11.23157 -5.357143,-10"
       id="path3063"
       inkscape:connector-curvature="0" />
    <path
       style="fill:none;stroke:#000000;stroke-width:1px;stroke-linecap:butt;stroke-linejoin:miter;stroke-opacity:1"
       d="m 62.142857,14.147895 c -13.037093,1.3013 8.465437,11.851612 0,0 z"
       id="path3067"
       inkscape:connector-curvature="0" />
    <path
       style="fill:none;stroke:#000000;stroke-width:1px;stroke-linecap:butt;stroke-linejoin:miter;stroke-opacity:1"
       d="M 56.428572,45.576467 C 44.826271,41.589351 43.689439,49.74417 38.214286,55.219324 23.780603,69.653006 54.984041,94.334446 77.5,83.076467 c 15.540495,-7.770248 4.762714,-54.683214 -12.857143,-40"
       id="path3079"
       inkscape:connector-curvature="0" />
    <path
       style="fill:none;stroke:#000000;stroke-width:1px;stroke-linecap:butt;stroke-linejoin:miter;stroke-opacity:1"
       d="m 53.571429,30.93361 c -11.492249,-1.073697 -18.259207,3.304126 -22.857143,12.5 -14.552168,29.104334 10.121747,56.387989 40,46.428571 2.680875,-0.893625 8.176858,0.39457 10,-1.428571 C 97.707066,71.44083 95.043739,30.219324 65,30.219324"
       id="path3081"
       inkscape:connector-curvature="0" />
    <path
       style="fill:none;stroke:#000000;stroke-width:1px;stroke-linecap:butt;stroke-linejoin:miter;stroke-opacity:1"
       d="M 56.785714,17.005038 C 22.19281,8.3825822 11.547164,70.69506 31.428571,90.576467 c 6.475454,6.475453 16.85502,9.677513 25.357143,13.928573 2.120769,1.06038 7.100192,-0.46197 8.928572,-1.07143 5.302788,-1.7676 10.181805,-1.69805 15.357143,-4.285715 C 93.492106,92.937557 101.00718,60.026582 96.785714,47.362181 89.617271,25.856852 79.131886,24.92734 64.642857,16.647895"
       id="path3083"
       inkscape:connector-curvature="0" />
    <path
       style="fill:none;stroke:#000000;stroke-width:1px;stroke-linecap:butt;stroke-linejoin:miter;stroke-opacity:1"
       d="m 30.357143,130.57647 c 3.959,0.21457 -1.191487,-1.78572 -2.5,-1.78572 -16.157068,0 7.558138,9.79236 -0.714286,13.92857 -2.752153,1.37608 -4.508105,0.36304 -6.428571,-0.35714"
       id="path3085"
       inkscape:connector-curvature="0" />
    <path
       style="fill:none;stroke:#000000;stroke-width:1px;stroke-linecap:butt;stroke-linejoin:miter;stroke-opacity:1"
       d="m 38.571429,133.79075 c -0.116422,-0.48947 -1.092495,-2.61202 -4.642858,-1.42857 -4.369784,1.4566 -3.404294,10.13679 1.428572,8.92857 6.42631,-1.60657 3.890563,-7.63525 -0.357143,-6.78571"
       id="path3087"
       inkscape:connector-curvature="0" />
    <path
       style="fill:none;stroke:#000000;stroke-width:1px;stroke-linecap:butt;stroke-linejoin:miter;stroke-opacity:1"
       d="M 44.642857,133.07647 C 39.80027,130.47007 39.67226,143.86901 47.5,140.93361"
       id="path3089"
       inkscape:connector-curvature="0" />
    <path
       style="fill:none;stroke:#000000;stroke-width:1px;stroke-linecap:butt;stroke-linejoin:miter;stroke-opacity:1"
       d="m 51.428572,134.50504 c -3.728882,16.8493 -1.954186,-16.91379 2.857142,7.14286"
       id="path3091"
       inkscape:connector-curvature="0" />
    <path
       style="fill:none;stroke:#000000;stroke-width:1px;stroke-linecap:butt;stroke-linejoin:miter;stroke-opacity:1"
       d="m 46.428572,138.43361 c 2.23605,0.10972 4.276049,-0.11797 6.428571,-0.35714"
       id="path3093"
       inkscape:connector-curvature="0" />
    <path
       style="fill:none;stroke:#000000;stroke-width:1px;stroke-linecap:butt;stroke-linejoin:miter;stroke-opacity:1"
       d="m 57.5,132.36218 c 4.246647,27.29537 -6.294366,-5.43145 5.714286,-1.42857 6.250726,2.08358 -7.889832,6.06326 -2.142857,7.5 4.536675,1.13417 5.411991,4.42221 5.714285,7.14286"
       id="path3095"
       inkscape:connector-curvature="0" />
    <path
       style="fill:none;stroke:#000000;stroke-width:1px;stroke-linecap:butt;stroke-linejoin:miter;stroke-opacity:1"
       d="m 78.214286,131.29075 c -13.036236,-4.89542 13.019977,14.56 -4.285714,10.71429"
       id="path3097"
       inkscape:connector-curvature="0" />
    <path
       style="fill:none;stroke:#000000;stroke-width:1px;stroke-linecap:butt;stroke-linejoin:miter;stroke-opacity:1"
       d="m 81.071429,133.79075 c -0.780381,-2.22719 3.866986,2.50821 6.428571,4.64286"
       id="path3099"
       inkscape:connector-curvature="0" />
    <path
       style="fill:none;stroke:#000000;stroke-width:1px;stroke-linecap:butt;stroke-linejoin:miter;stroke-opacity:1"
       d="m 91.428572,131.6479 c -2.450578,2.63594 -4.609696,5.63967 -6.071429,8.92857"
       id="path3101"
       inkscape:connector-curvature="0" />
    <path
       style="fill:none;stroke:#000000;stroke-width:1px;stroke-linecap:butt;stroke-linejoin:miter;stroke-opacity:1"
       d="m 98.571429,130.57647 c 7.058961,-3.67825 -3.891008,0.63916 -5.357143,3.57143 -1.045036,2.09007 10.129714,9.64285 -2.5,9.64285"
       id="path3103"
       inkscape:connector-curvature="0" />
    <path
       style="fill:none;stroke:#000000;stroke-width:1px;stroke-linecap:butt;stroke-linejoin:miter;stroke-opacity:1"
       d="m 28.571429,149.1479 c 3.078978,16.96157 7.307596,1.73088 9.642857,-1.07143"
       id="path3105"
       inkscape:connector-curvature="0" />
    <path
       style="fill:none;stroke:#000000;stroke-width:1px;stroke-linecap:butt;stroke-linejoin:miter;stroke-opacity:1"
       d="m 44.285714,148.79075 c 0.06593,3.34118 -0.714285,6.65818 -0.714285,10"
       id="path3107"
       inkscape:connector-curvature="0" />
    <path
       style="fill:none;stroke:#000000;stroke-width:1px;stroke-linecap:butt;stroke-linejoin:miter;stroke-opacity:1"
       d="m 51.428572,147.36218 c -0.358009,6.27803 -0.855949,17.99881 7.142857,10"
       id="path3109"
       inkscape:connector-curvature="0" />
    <path
       style="fill:none;stroke:#000000;stroke-width:1px;stroke-linecap:butt;stroke-linejoin:miter;stroke-opacity:1"
       d="m 53.571429,154.86218 c 1.222346,-0.52171 2.381919,-0.95277 3.571428,-1.42857"
       id="path3111"
       inkscape:connector-curvature="0" />
    <path
       style="fill:none;stroke:#000000;stroke-width:1px;stroke-linecap:butt;stroke-linejoin:miter;stroke-opacity:1"
       d="m 51.785714,150.21932 c 1.88234,-1.20134 4.341291,-1.44709 6.428572,-2.14285"
       id="path3113"
       inkscape:connector-curvature="0" />
    <path
       style="fill:none;stroke:#000000;stroke-width:1px;stroke-linecap:butt;stroke-linejoin:miter;stroke-opacity:1"
       d="m 60,148.43361 c 6.807025,16.19941 8.097822,18.83347 15.357143,2.5"
       id="path3117"
       inkscape:connector-curvature="0" />
    <path
       style="fill:none;stroke:#000000;stroke-width:1px;stroke-linecap:butt;stroke-linejoin:miter;stroke-opacity:1"
       d="m 65,154.1479 c 7.708952,8.90307 17.142857,10.47832 17.142857,-3.92858"
       id="path3119"
       inkscape:connector-curvature="0" />
    <path
       style="fill:none;stroke:#000000;stroke-width:1px;stroke-linecap:butt;stroke-linejoin:miter;stroke-opacity:1"
       d="M 50.714286,68.076467 C 62.11225,74.589589 44.564709,54.328397 57.5,61.290752 c -3.463096,14.737643 7.321673,9.644815 6.071429,-0.357142"
       id="path3123"
       inkscape:connector-curvature="0" />
    <path
       style="fill:none;stroke:#000000;stroke-width:1px;stroke-linecap:butt;stroke-linejoin:miter;stroke-opacity:1"
       d="m 66.428572,61.290752 c 2.20538,17.728116 -4.542201,8.165573 1.428571,-1.785714 C 68.551739,58.347379 68.389468,69.68022 70,71.290752 c 2.511312,2.511313 1.729565,-6.890183 2.5,-10.357142"
       id="path3125"
       inkscape:connector-curvature="0" />
    <path
       style="fill:none;stroke:#000000;stroke-width:1px;stroke-linecap:butt;stroke-linejoin:miter;stroke-opacity:1"
       d="M 100.35714,103.79075 C 80.978351,96.751594 76.180441,108.15537 79.285714,120.57647"
       id="path3127"
       inkscape:connector-curvature="0" />
    <path
       style="fill:none;stroke:#000000;stroke-width:1px;stroke-linecap:butt;stroke-linejoin:miter;stroke-opacity:1"
       d="m 22.142857,105.21932 c 1.43542,0.005 -1.071428,-2.10195 -1.071428,-2.5 0,-0.28482 3.091703,0.68364 3.214285,0.71429 2.541205,0.6353 5.373648,0.2436 7.857143,1.07143 7.704224,2.56807 5,14.05638 5,20.35714"
       id="path3133"
       inkscape:connector-curvature="0" />
    <path
       style="fill:none;stroke:#000000;stroke-width:1px;stroke-linecap:butt;stroke-linejoin:miter;stroke-opacity:1"
       d="m 85.357143,110.93361 c 2.241372,0.007 9.239144,0.62115 7.142857,-3.57143 -0.327393,-0.65479 -1.071428,-1.87579 -1.071428,-2.5 0,-0.16836 0.238095,0.2381 0.357142,0.35714 0.472192,0.4722 1.811525,1.09724 2.5,1.78572 0.631607,0.63161 6.049146,5.02228 5.714286,5.35714 -0.273773,0.27377 -1.033348,0.67621 -1.428571,1.07143 -1.408377,1.40838 -6.944681,5.91246 -7.142857,5.71429 -0.898696,-0.8987 0.557202,-4.79995 -0.357143,-5.71429 -1.879677,-1.87968 -9.328117,3.52305 -5.714286,-2.5 z"
       id="path3137"
       inkscape:connector-curvature="0" />
    <path
       style="fill:none;stroke:#000000;stroke-width:1px;stroke-linecap:butt;stroke-linejoin:miter;stroke-opacity:1"
       d="m 22.857143,113.43361 c 2.855217,0.0487 5.252613,-3.57143 6.785714,-3.57143 0.263953,0 -0.351912,5.71952 0,6.07143 0.941658,0.94166 4.25666,-1.45763 5.357143,-0.35714 0.421572,0.42157 -0.20582,1.84021 -0.357143,2.14285 -0.13466,0.26932 -0.07905,2.5 -0.357143,2.5 -0.458813,0 -5,-1.11416 -5,-1.07142 0,1.31492 0.572649,2.99878 -0.357143,3.92857 -0.211984,0.21198 -1.629035,-1.8295 -1.785714,-2.14286 -1.537262,-3.07452 -5.792998,-3.73179 -4.285714,-7.5 z"
       id="path3139"
       inkscape:connector-curvature="0" />
    <path
       style="fill:none;stroke:#000000;stroke-width:1px;stroke-linecap:butt;stroke-linejoin:miter;stroke-opacity:1"
       d="m 112.5,13.076467 c -0.11905,-0.476191 -0.83333,-1.309524 -0.35714,-1.428572 0.45314,-0.113287 0,5.053033 0,6.071429 0,5.252431 -1.07143,10.393419 -1.07143,15.714286 0,3.402499 0.92473,13.086774 0.35714,15.357142 -1.01368,4.05473 -0.96983,15.304799 0.35714,19.285715 1.6163,4.848887 2.84265,20.757792 1.07143,26.071428 -0.46428,1.392858 0.46429,3.25 0,4.642858 -1.24141,3.724227 -0.71428,15.131217 -0.71428,19.642857 0,0.53936 -1.05065,3.94936 -0.71429,4.28571 0.4441,0.4441 25.18012,-1.78571 27.5,-1.78571 3.12914,0 26.72355,-2.56216 27.5,-1.78571 1.16806,1.16805 6.58057,1.78571 8.92857,1.78571 0.53544,0 6.55531,0.23041 7.14286,-0.35714 0.22848,-0.22848 0.9302,-11.14613 2.14286,-13.57143 0.38679,-0.77359 -0.009,-2.1247 0.35714,-2.85714 2.87957,-5.759146 1.19945,-16.044526 -0.71429,-21.785719 -1.2714,-3.814225 0.54248,-8.729722 -0.71428,-12.5 -0.61633,-1.848981 -0.87089,-5.802168 -0.35714,-7.857143 1.19565,-4.782611 2.88955,-37.792314 0.71428,-42.142857 -0.92328,-1.846554 0.036,-7.82109 -1.42857,-9.285714 -1.98065,-1.9806534 -7.88659,0.08192 -11.07143,-0.714286 -11.15316,-2.7882914 -24.83784,-1.8181451 -35.71428,0.357143 -2.33606,0.467211 -6.44955,-0.3466565 -8.57143,0.714286 -2.71712,1.358557 -11.76198,3.29521 -14.64286,2.142857 z"
       id="path3141"
       inkscape:connector-curvature="0" />
    <path
       style="fill:none;stroke:#000000;stroke-width:1px;stroke-linecap:butt;stroke-linejoin:miter;stroke-opacity:1"
       d="m 147.14286,39.862181 c -5.62647,-6.352099 -16.87207,-0.627937 -21.78572,4.285714 -0.87549,0.87549 -1.51473,2.487518 -1.78571,3.571429 -0.52547,2.101887 -2.39585,3.630883 -1.78572,6.071428 2.10702,8.428055 10.83441,15.595774 18.21429,19.285715 2.51148,1.255738 13.33578,-1.667893 15.71429,-2.857143 1.8399,-0.919952 3.3057,-3.305701 4.64285,-4.642857 16.72199,-16.72199 -10.04322,-36.74249 -20.71428,-26.071429"
       id="path3143"
       inkscape:connector-curvature="0" />
    <path
       style="fill:none;stroke:#000000;stroke-width:1px;stroke-linecap:butt;stroke-linejoin:miter;stroke-opacity:1"
       d="m 151.42857,53.790752 c -1.78777,-0.864752 -1.90419,-0.07956 -3.21428,0.357143 -5.89207,1.964023 -1.7632,5.334621 -3.57143,7.142857 -1.14643,1.146428 -3.92857,1.639063 -3.92857,1.785715 0,1.431589 -1.50353,2.641096 0.35714,3.571428 1.25137,0.625686 2.93489,-0.383059 3.92857,-0.714285 4.32823,-1.442744 3.71888,-4.433162 6.07143,-6.785715 0.27529,-0.275294 2.01322,0.779105 2.85714,0.357143 0.85602,-0.428008 1.85741,-1.50026 2.5,-2.142857 3.15726,-3.157262 -1.43589,-6.422711 -5,-3.571429 z"
       id="path3145"
       inkscape:connector-curvature="0" />
    <path
       style="fill:none;stroke:#000000;stroke-width:1px;stroke-linecap:butt;stroke-linejoin:miter;stroke-opacity:1"
       d="m 132.85714,39.147895 c 1.21728,4.078519 1.39706,7.158614 -2.85714,9.285715 -0.90401,0.452005 -3.59864,-0.68707 -4.28571,0 -1.06692,1.066916 -2.4592,3.928571 -3.92858,3.928571"
       id="path3147"
       inkscape:connector-curvature="0" />
    <path
       style="fill:none;stroke:#000000;stroke-width:1px;stroke-linecap:butt;stroke-linejoin:miter;stroke-opacity:1"
       d="m 140.35714,38.790752 c 1.04479,3.800991 -0.95017,7.614629 -2.14285,10 -1.21282,2.425641 -7.14199,3.212552 -9.28572,7.5 -1.53604,3.072078 4.41949,2.009088 5.71429,0.714286 3.01279,-3.01279 4.04905,-5.477624 6.42857,-7.857143 1.44646,-1.446463 10.79261,-4.86059 13.21428,-6.071428 2.94377,-1.471884 4.72237,3.055272 6.42858,-0.357143"
       id="path3149"
       inkscape:connector-curvature="0" />
    <path
       style="fill:none;stroke:#000000;stroke-width:1px;stroke-linecap:butt;stroke-linejoin:miter;stroke-opacity:1"
       d="m 146.07143,72.362181 c 2.39246,-7.436134 9.24192,-9.599061 13.57143,-13.928571 1.89607,-1.896074 1.92682,-6.428572 5,-6.428572"
       id="path3151"
       inkscape:connector-curvature="0" />
    <path
       style="fill:none;stroke:#000000;stroke-width:1px;stroke-linecap:butt;stroke-linejoin:miter;stroke-opacity:1"
       d="m 126.78571,62.719324 c 1.4729,0.203278 3.88828,-1.80586 5.35715,-1.071429 3.71685,1.858425 3.8006,7.755946 2.85714,9.642857"
       id="path3153"
       inkscape:connector-curvature="0" />
    <path
       style="fill:none;stroke:#000000;stroke-width:1px;stroke-linecap:butt;stroke-linejoin:miter;stroke-opacity:1"
       d="m 118.57143,129.1479 c -5.13965,-1.91579 4.41828,1.41016 -1.78572,-1.07143 -1.11084,-0.44434 -0.16045,2.39129 -0.35714,3.57143 -0.33094,1.98564 -1.57885,9.49257 0,11.07142 0.22855,0.22856 -0.77723,-2.68882 -1.07143,-3.57142 -1.0533,-3.15991 -3.93159,-10.11804 1.07143,-11.78572 2.61327,-0.87109 0.37442,0.52254 2.14286,1.78572 0.58124,0.41517 1.4499,-0.17324 2.14286,0 0.72378,0.18094 1.41628,1.5887 1.78571,2.14285 2.18852,3.28278 -5.25509,2.85715 -6.07143,2.85715"
       id="path3155"
       inkscape:connector-curvature="0" />
    <path
       style="fill:none;stroke:#000000;stroke-width:1px;stroke-linecap:butt;stroke-linejoin:miter;stroke-opacity:1"
       d="m 127.14286,128.43361 c -0.51949,1.76519 -4.23269,11.27651 -2.5,12.14286 1.2211,0.61055 6.78571,1.68754 6.78571,-0.35715"
       id="path3157"
       inkscape:connector-curvature="0" />
    <path
       style="fill:none;stroke:#000000;stroke-width:1px;stroke-linecap:butt;stroke-linejoin:miter;stroke-opacity:1"
       d="m 134.64286,129.50504 c -0.0577,1.16855 -0.71767,2.15301 -1.07143,3.21428 -0.5702,1.71059 -1.35286,3.62574 -1.78572,5.35715 -0.0256,0.10233 0.0179,1.78571 0,1.78571 -0.16851,0 1.04255,-3.39813 1.07143,-3.57143 0.25813,-1.54876 1.81459,-10 2.5,-10 1.10117,0 3.35733,9.07251 3.57143,10.35715 0.10655,0.63926 0.15978,1.90789 0.35714,2.5 0.11905,0.35714 0.73361,1.07142 0.35715,1.07142 -0.35715,0 0,-0.71428 0,-1.07142"
       id="path3159"
       inkscape:connector-curvature="0" />
    <path
       style="fill:none;stroke:#000000;stroke-width:1px;stroke-linecap:butt;stroke-linejoin:miter;stroke-opacity:1"
       d="m 131.07143,136.6479 c 2.99933,-1.41875 5.37663,-1.07143 8.57143,-1.07143"
       id="path3161"
       inkscape:connector-curvature="0" />
    <path
       style="fill:none;stroke:#000000;stroke-width:1px;stroke-linecap:butt;stroke-linejoin:miter;stroke-opacity:1"
       d="m 143.92857,129.1479 c 0.52658,3.93551 -0.35714,7.77964 -0.35714,11.78571 0,0.35714 0.35714,1.07143 0,1.07143 -0.95238,0 0,-1.90476 0,-2.85714 0,-1.39299 -1.04184,-3.98776 -0.35714,-5.35715 0.32647,-0.65294 5.33896,6.61623 7.14285,5.71429 2.44353,-1.22176 1.42857,-8.08173 1.42857,-11.78572"
       id="path3163"
       inkscape:connector-curvature="0" />
    <path
       style="fill:none;stroke:#000000;stroke-width:1px;stroke-linecap:butt;stroke-linejoin:miter;stroke-opacity:1"
       d="m 157.85714,130.57647 c 0.26852,4.72629 -0.21416,16.17851 7.14286,12.5 1.35557,-0.67779 3.23562,-1.47125 3.92857,-2.85715"
       id="path3165"
       inkscape:connector-curvature="0" />
    <path
       style="fill:none;stroke:#000000;stroke-width:1px;stroke-linecap:butt;stroke-linejoin:miter;stroke-opacity:1"
       d="m 157.5,137.71932 c -3.11324,0.079 -1.13942,0.50641 0,0 0.87806,-0.39024 2.90639,-2.16747 3.57143,-2.5"
       id="path3167"
       inkscape:connector-curvature="0" />
    <path
       style="fill:none;stroke:#000000;stroke-width:1px;stroke-linecap:butt;stroke-linejoin:miter;stroke-opacity:1"
       d="m 157.5,132.36218 c -3.89487,-1.12714 -0.1702,0.0851 0,0 0.57341,-0.2867 0.35867,-1.25229 0.71429,-1.78571 0.88404,-1.32607 3.35795,-1.00027 4.64285,-1.42857"
       id="path3169"
       inkscape:connector-curvature="0" />
    <path
       style="fill:none;stroke:#000000;stroke-width:1px;stroke-linecap:butt;stroke-linejoin:miter;stroke-opacity:1"
       d="m 170,127.71932 c 2.75317,1.62285 0.71421,12.49993 1.78571,13.57143 0.4902,0.4902 0.35715,-0.63025 0.35715,-0.71428"
       id="path3171"
       inkscape:connector-curvature="0" />
    <path
       style="fill:none;stroke:#000000;stroke-width:1px;stroke-linecap:butt;stroke-linejoin:miter;stroke-opacity:1"
       d="m 162.85714,132.71932 c 2.19558,-5.04623 14.27362,-4.28571 17.85715,-4.28571"
       id="path3173"
       inkscape:connector-curvature="0" />
    <path
       style="fill:none;stroke:#000000;stroke-width:1px;stroke-linecap:butt;stroke-linejoin:miter;stroke-opacity:1"
       d="m 121.78571,149.86218 c -6.06591,-5.86079 -11.8732,7.85714 -5.71428,7.85714 2.83783,0 8.96088,-5.69274 5.71428,-7.85714 -0.53342,-0.35561 -1.16929,0.53817 -1.78571,0.71429 -1.18095,0.33741 -4.17321,-1.20356 -3.21429,0.71428"
       id="path3185"
       inkscape:connector-curvature="0" />
    <path
       style="fill:none;stroke:#000000;stroke-width:1px;stroke-linecap:butt;stroke-linejoin:miter;stroke-opacity:1"
       d="m 125.35714,149.50504 c -0.61422,1.0199 2.63685,9.50601 3.92857,8.21428 1.61314,-1.61313 1.42858,-5.36254 1.42858,-7.5 0,-1.07142 0,-4.28571 0,-3.21428 0,0.47619 0,0.95238 0,1.42857"
       id="path3187"
       inkscape:connector-curvature="0" />
    <path
       style="fill:none;stroke:#000000;stroke-width:1px;stroke-linecap:butt;stroke-linejoin:miter;stroke-opacity:1"
       d="m 135,148.07647 c 0.42663,1.93329 -0.28846,9.96566 3.92857,7.85714 1.15406,-0.57703 1.95869,-1.06023 2.5,-2.14286"
       id="path3189"
       inkscape:connector-curvature="0" />
    <path
       style="fill:none;stroke:#000000;stroke-width:1px;stroke-linecap:butt;stroke-linejoin:miter;stroke-opacity:1"
       d="m 136.78571,152.36218 c -3.43054,-0.36829 -0.66565,0.26626 0,0 1.01907,-0.40762 1.51831,-1.65201 2.5,-2.14286"
       id="path3191"
       inkscape:connector-curvature="0" />
    <path
       style="fill:none;stroke:#000000;stroke-width:1px;stroke-linecap:butt;stroke-linejoin:miter;stroke-opacity:1"
       d="m 135.35714,149.1479 c -0.17547,-2.20207 2.83707,-2.66854 4.64286,-3.57143"
       id="path3193"
       inkscape:connector-curvature="0" />
    <path
       style="fill:none;stroke:#000000;stroke-width:1px;stroke-linecap:butt;stroke-linejoin:miter;stroke-opacity:1"
       d="m 143.21429,144.1479 c -0.1254,1.61201 0.45617,3.09418 0.71428,4.64285 0.26106,1.56635 0.71429,3.4539 0.71429,5 0,0.2381 0.16836,0.88265 0,0.71429 -1.28907,-1.28906 -6.6546,-10.35714 -1.42857,-10.35714 0.92979,0 1.39902,1.22783 2.14285,1.78571 0.64208,0.48156 2.33174,1.7651 1.78572,2.85714 -0.65922,1.31843 -2.4683,1.06086 -3.57143,1.42857 -0.35714,0.11905 -1.07143,0.73361 -1.07143,0.35715 0,-0.76228 1.15146,1.00573 1.78571,1.42857 1.76706,1.17804 4.16669,1.30954 5.35715,2.5"
       id="path3195"
       inkscape:connector-curvature="0" />
    <path
       style="fill:none;stroke:#000000;stroke-width:1px;stroke-linecap:butt;stroke-linejoin:miter;stroke-opacity:1"
       d="m 150.71429,145.21932 c 2.59334,2.5841 1.81301,7.88444 4.28571,10.35715 0.23266,0.23265 1.07143,-4.26394 1.07143,-7.85715 0,-0.23809 -0.2381,-0.71428 0,-0.71428 0.60702,0 0.0857,1.24277 0.35714,1.78571"
       id="path3197"
       inkscape:connector-curvature="0" />
    <path
       style="fill:none;stroke:#000000;stroke-width:1px;stroke-linecap:butt;stroke-linejoin:miter;stroke-opacity:1"
       d="m 161.42857,144.50504 c 0.88041,2.7177 -0.71428,7.79206 -0.71428,9.28571"
       id="path3199"
       inkscape:connector-curvature="0" />
    <path
       style="fill:none;stroke:#000000;stroke-width:1px;stroke-linecap:butt;stroke-linejoin:miter;stroke-opacity:1"
       d="m 166.42857,143.79075 c 0.22905,0.9162 0.51337,1.56264 0.35714,2.5 -0.24205,1.45232 -1.25233,5.89052 0,7.14286 1.75101,1.751 7.5,0.8274 7.5,-1.78571"
       id="path3201"
       inkscape:connector-curvature="0" />
    <path
       style="fill:none;stroke:#000000;stroke-width:1px;stroke-linecap:butt;stroke-linejoin:miter;stroke-opacity:1"
       d="m 167.14286,150.57647 c 0.81979,-0.61363 1.66488,-1.22897 2.5,-1.78572"
       id="path3203"
       inkscape:connector-curvature="0" />
    <path
       style="fill:none;stroke:#000000;stroke-width:1px;stroke-linecap:butt;stroke-linejoin:miter;stroke-opacity:1"
       d="m 165.35714,146.6479 c 0.99154,-2.21681 4.44952,-3.21429 6.78572,-3.21429 -0.82551,1.54188 -0.60912,2.05956 -0.35715,3.57143 1.69606,10.17634 10.05392,-1.78572 5.35715,-1.78572"
       id="path3205"
       inkscape:connector-curvature="0" />
    <path
       style="fill:none;stroke:#000000;stroke-width:1px;stroke-linecap:butt;stroke-linejoin:miter;stroke-opacity:1"
       d="m 173.92857,146.29075 c -0.0365,11.2487 14.1793,5.80539 10.71429,-2.85714 -0.51615,-1.29036 -1.00906,-1.42857 -1.42857,-1.42857"
       id="path3207"
       inkscape:connector-curvature="0" />
    <path
       style="fill:none;stroke:#000000;stroke-width:1px;stroke-linecap:butt;stroke-linejoin:miter;stroke-opacity:1"
       d="m 112.14286,103.43361 c -2.8671,1.07117 -1.64066,-0.16407 0,0 0.69071,0.0691 1.13575,0.82769 1.78571,1.07143 2.16413,0.81155 12.37862,-1.19281 13.92857,0.35714 2.52734,2.52733 -0.35714,8.5695 -0.35714,11.42857 0,2.05372 -0.35714,3.7692 -0.35714,5.71429 0,0.59524 0.59524,1.78571 0,1.78571 -0.47619,0 0,-0.95238 0,-1.42857"
       id="path3209"
       inkscape:connector-curvature="0" />
    <path
       style="fill:none;stroke:#000000;stroke-width:1px;stroke-linecap:butt;stroke-linejoin:miter;stroke-opacity:1"
       d="m 186.07143,102.71932 c -0.12262,0.81188 -19.25655,-0.0292 -19.64286,0.35715 -2.22964,2.22964 0.58611,14.02935 1.07143,15"
       id="path3215"
       inkscape:connector-curvature="0" />
    <path
       style="fill:none;stroke:#000000;stroke-width:1px;stroke-linecap:butt;stroke-linejoin:miter;stroke-opacity:1"
       d="m 113.57143,112.71932 c 1.41939,0.59587 7.81368,-5.75774 8.21428,-5.35714 0.59514,0.59513 -1.66551,4.40592 -1.07142,5 1.8958,1.89581 8.26778,-4.39271 4.64285,2.85714 -0.25264,0.5053 0.0411,1.74463 -0.35714,2.14286 -0.21084,0.21084 -4.84907,-2.29379 -6.07143,-1.07143 -0.026,0.0261 0.12692,5 -0.35714,5 -1.26121,0 -4.21309,-7.25991 -5,-8.57143 z"
       id="path3217"
       inkscape:connector-curvature="0" />
    <path
       style="fill:none;stroke:#000000;stroke-width:1px;stroke-linecap:butt;stroke-linejoin:miter;stroke-opacity:1"
       d="m 168.21429,109.1479 c 9.40326,3.31769 5.14297,-4.64286 6.42857,-4.64286 0.0906,0 5,9.87479 5,10 0,0.0262 -1.0059,-0.0328 -1.07143,0 -0.89452,0.44726 -1.94686,1.17885 -2.85714,1.78571 -0.77257,0.51505 -2.96698,3.21429 -3.57143,3.21429 -1.21974,0 2.98555,-5.94302 1.78571,-7.14286 -0.77687,-0.77687 -5.31996,1.46575 -6.42857,0.35714 -0.23497,-0.23496 0.6637,-3.3185 0.71429,-3.57142 z"
       id="path3219"
       inkscape:connector-curvature="0" />
    <path
       style="fill:none;stroke:#000000;stroke-width:1px;stroke-linecap:butt;stroke-linejoin:miter;stroke-opacity:1"
       d="m 194.28571,11.647895 c -0.48507,-1.9402847 -0.48507,-1.9402847 0,0 4.63152,-1.8603411 -1.07409,-1.7923816 -1.07142,-1.785714 0.2578,0.644512 1.07142,1.091553 1.07142,1.785714 0,0.694161 -0.76099,1.164838 -1.07142,1.785715 -0.60847,1.216925 -0.35715,4.72402 -0.35715,6.071428 0,2.363538 1.82564,6.705867 0.71429,8.928572 -0.76389,1.527767 -2.14286,20.72431 -2.14286,23.928571 0,12.120536 2.26688,27.485092 -1.42857,38.571429 -0.37887,1.136606 0.0191,2.442578 -0.35714,3.571428 -1.9295,5.788482 -2.14286,13.731442 -2.14286,20.000002 0,2.35913 -0.35714,4.48272 -0.35714,6.78571 0,0.86465 -0.19573,2.33859 0,2.14286 3.58944,-3.58945 26.45813,-2.97126 31.42857,-2.14286 2.91786,0.48631 6.31867,0 9.28571,0 8.5143,0 16.9309,-0.35714 25.35715,-0.35714 2.36824,0 13.82085,0.46486 15,-0.71429 0.52024,-0.52024 -4.64286,-15.81379 -4.64286,-21.428567 0,-10.453662 -0.38211,-21.685838 2.14286,-31.785715 1.14319,-4.572758 0.036,-14.498785 -1.07143,-18.928571 -0.9532,-3.81278 -0.35715,-10.55672 -0.35715,-14.642857 0,-2.310674 0.92648,-15.647057 0.35715,-16.785715 C 263.78187,14.925918 262.5,8.597325 262.5,8.4336095 c 0,-0.4761904 0.33672,-1.0918539 0,-1.4285714 -1.80926,-1.809261 -8.19352,-1.2101323 -11.07143,-1.7857143 -4.92612,-0.985225 -11.05881,0 -16.07143,0 -5.62743,0 -11.93105,-0.7955631 -17.5,0 -3.04156,0.4345087 -16.16254,1.7401592 -18.92857,0.3571429 -0.63824,-0.3191207 -6.09133,-0.3372388 -6.42857,0 -0.27825,0.2782484 1.9667,5.6189533 1.07143,7.8571433"
       id="path3223"
       inkscape:connector-curvature="0" />
    <path
       style="fill:none;stroke:#000000;stroke-width:1px;stroke-linecap:butt;stroke-linejoin:miter;stroke-opacity:1"
       d="m 198.21429,128.43361 c 0.23809,-0.47619 0.23809,-1.66667 0.71428,-1.42857 0.47619,0.23809 -0.9882,0.97204 -0.71428,1.42857 0.31231,0.52052 1.26519,0.0448 1.78571,0.35714 0.1118,0.0671 1.07943,11.06343 1.07143,11.07143 -0.65197,0.65197 -6.19649,-7.82492 -4.64286,-10 2.20496,-3.08694 6.31401,-5.22912 8.57143,-0.71428 1.41436,2.82872 -8.02233,6.04465 -7.14286,4.28571"
       id="path3225"
       inkscape:connector-curvature="0" />
    <path
       style="fill:none;stroke:#000000;stroke-width:1px;stroke-linecap:butt;stroke-linejoin:miter;stroke-opacity:1"
       d="m 209.28571,125.93361 c -3.42079,3.18783 -4.73911,15.2267 2.85715,11.42857"
       id="path3227"
       inkscape:connector-curvature="0" />
    <path
       style="fill:none;stroke:#000000;stroke-width:1px;stroke-linecap:butt;stroke-linejoin:miter;stroke-opacity:1"
       d="m 214.64286,130.21932 c 0.23809,-0.47619 0.23809,-1.66666 0.71428,-1.42857 0.47619,0.2381 -0.5613,0.91863 -0.71428,1.42857 -0.8556,5.13356 0.29816,0.0186 -1.07143,3.21429 -0.44979,1.0495 -0.57174,2.57206 -1.07143,3.57143 -0.11905,0.23809 -0.62334,0.71428 -0.35714,0.71428 0.77626,0 2.46051,-7.02612 2.5,-7.5 0.0797,-0.95647 -1.03582,-2.17846 -0.35715,-2.85714 0.26052,-0.26052 1.08919,0.59002 1.07143,0.71429 -0.10648,0.74535 -1.24668,1.61046 -0.71428,2.14285 0.53239,0.5324 1.38993,-0.71428 2.14285,-0.71428 1.82731,0 3.57143,9.00665 3.57143,7.5"
       id="path3229"
       inkscape:connector-curvature="0" />
    <path
       style="fill:none;stroke:#000000;stroke-width:1px;stroke-linecap:butt;stroke-linejoin:miter;stroke-opacity:1"
       d="m 211.78571,134.50504 c 1.96667,-1.73701 4.51591,-2.85714 7.14286,-2.85714"
       id="path3231"
       inkscape:connector-curvature="0" />
    <path
       style="fill:none;stroke:#000000;stroke-width:1px;stroke-linecap:butt;stroke-linejoin:miter;stroke-opacity:1"
       d="m 222.85714,127.36218 c 0.44262,1.32785 0.89672,1.93724 0.71429,3.21429 -0.11211,0.78478 -0.45988,1.73679 -0.71429,2.5 -0.32165,0.96494 -0.0543,2.85714 -1.07143,2.85714 -0.22362,0 0.70103,-1.71943 0.71429,-1.78571 0.0545,-0.27238 1.04468,-4.64286 1.07143,-4.64286 0.28351,0 2.11193,6.08689 3.57143,5.35714 2.14292,-1.07146 3.60126,-5.62478 2.85714,-7.85714 -0.10648,-0.31944 -0.71429,-0.37757 -0.71429,-0.71429 0,-0.12857 1.02713,0.66999 1.07143,0.71429"
       id="path3233"
       inkscape:connector-curvature="0" />
    <path
       style="fill:none;stroke:#000000;stroke-width:1px;stroke-linecap:butt;stroke-linejoin:miter;stroke-opacity:1"
       d="m 235,128.07647 c -0.45341,2.26703 -0.20992,1.19681 -0.71429,3.21428 -0.41558,1.66234 -1.00637,3.24749 -0.71428,5 0.91399,5.48394 9.6141,1.37106 7.85714,-2.14285"
       id="path3235"
       inkscape:connector-curvature="0" />
    <path
       style="fill:none;stroke:#000000;stroke-width:1px;stroke-linecap:butt;stroke-linejoin:miter;stroke-opacity:1"
       d="m 234.64286,132.71932 c 1.40924,-0.49433 2.72111,-0.98074 3.92857,-1.78571"
       id="path3237"
       inkscape:connector-curvature="0" />
    <path
       style="fill:none;stroke:#000000;stroke-width:1px;stroke-linecap:butt;stroke-linejoin:miter;stroke-opacity:1"
       d="m 231.07143,128.43361 c 0.54908,-2.85872 4.27957,-3.21429 6.78571,-3.21429"
       id="path3239"
       inkscape:connector-curvature="0" />
    <path
       style="fill:none;stroke:#000000;stroke-width:1px;stroke-linecap:butt;stroke-linejoin:miter;stroke-opacity:1"
       d="m 246.42857,124.86218 c 1.35973,2.39353 1.07143,5.16586 1.07143,7.85714 0,1.49327 0.36208,2.85715 0.35714,2.85715 -0.23809,0 0,-0.47619 0,-0.71429"
       id="path3241"
       inkscape:connector-curvature="0" />
    <path
       style="fill:none;stroke:#000000;stroke-width:1px;stroke-linecap:butt;stroke-linejoin:miter;stroke-opacity:1"
       d="m 240.35714,128.07647 c 0.11905,-0.59524 0.0204,-1.28064 0.35715,-1.78572 1.32484,-1.98726 15.50493,-1.84727 16.42857,0"
       id="path3243"
       inkscape:connector-curvature="0" />
    <path
       style="fill:none;stroke:#000000;stroke-width:1px;stroke-linecap:butt;stroke-linejoin:miter;stroke-opacity:1"
       d="m 191.07143,144.50504 c -0.51977,1.06743 1.18902,8.45383 0.71428,8.92857 -0.2053,0.2053 -2.75328,-7.14286 -1.07142,-7.14286 1.66972,0 2.25428,6.26143 4.28571,3.21429 0.92974,-1.3946 1.28242,-3.13296 1.78571,-4.64286 0.0229,-0.0687 -0.0183,-1.07143 0,-1.07143 0.2381,0 -0.10647,0.50133 0,0.71429 0.56785,1.13569 2.2173,2.93158 2.85715,3.57143 0.39569,0.39569 1.30917,6.18977 0.35714,4.28571"
       id="path3275"
       inkscape:connector-curvature="0" />
    <path
       style="fill:none;stroke:#000000;stroke-width:1px;stroke-linecap:butt;stroke-linejoin:miter;stroke-opacity:1"
       d="m 201.78571,144.1479 c 0.14773,1.38015 -0.82034,2.31599 -1.07142,3.57142 -1.91044,9.55217 0.43928,-3.39081 1.07142,-3.57142 2.49491,-0.71283 2.5,6.67888 2.5,7.85714 0,0.23809 0.2381,0.71428 0,0.71428 -0.37646,0 -0.18878,-0.73471 -0.35714,-1.07142"
       id="path3277"
       inkscape:connector-curvature="0" />
    <path
       style="fill:none;stroke:#000000;stroke-width:1px;stroke-linecap:butt;stroke-linejoin:miter;stroke-opacity:1"
       d="m 199.28571,148.79075 c 1.86038,0.10532 3.34722,0.11211 5,-0.71428"
       id="path3279"
       inkscape:connector-curvature="0" />
    <path
       style="fill:none;stroke:#000000;stroke-width:1px;stroke-linecap:butt;stroke-linejoin:miter;stroke-opacity:1"
       d="m 207.14286,144.50504 c -1.10803,0.54888 -2.12183,7.85714 -2.85715,7.85714 -0.22344,0 1.02278,-3.01969 1.07143,-3.21428 0.14723,-0.58891 -0.24988,-1.78572 0.35715,-1.78572 0.28566,0 1.89365,5.96349 4.64285,3.21429 1.00235,-1.00235 0.71429,-6.15481 0.71429,-5"
       id="path3281"
       inkscape:connector-curvature="0" />
    <path
       style="fill:none;stroke:#000000;stroke-width:1px;stroke-linecap:butt;stroke-linejoin:miter;stroke-opacity:1"
       d="m 216.42857,146.29075 c -4.50431,6.75647 0.10013,-0.55739 -1.78571,3.21429 -0.54814,1.09627 -1.78572,4.43995 -1.78572,3.21428 0,-1.81047 3.23506,-4.57853 3.57143,-6.42857 0.11468,-0.63075 -1.30952,-1.54762 -0.71428,-1.78571 0.12743,-0.051 1.78571,3.79667 1.78571,6.78571"
       id="path3283"
       inkscape:connector-curvature="0" />
    <path
       style="fill:none;stroke:#000000;stroke-width:1px;stroke-linecap:butt;stroke-linejoin:miter;stroke-opacity:1"
       d="m 212.5,150.21932 c 1.74449,1.6599 4.67088,0.68627 6.07143,-0.71428"
       id="path3285"
       inkscape:connector-curvature="0" />
    <path
       style="fill:none;stroke:#000000;stroke-width:1px;stroke-linecap:butt;stroke-linejoin:miter;stroke-opacity:1"
       d="m 223.92857,142.00504 c -3.06846,-0.0971 -5.76608,5.50709 -5,8.57143 0.86116,3.44464 6.32,3.78858 7.85714,0.71428 0.88474,-1.76946 -3.57142,-2.74632 -3.57142,-1.07143"
       id="path3287"
       inkscape:connector-curvature="0" />
    <path
       style="fill:none;stroke:#000000;stroke-width:1px;stroke-linecap:butt;stroke-linejoin:miter;stroke-opacity:1"
       d="m 230,144.1479 c -7.81471,6.34093 3.92857,10.90175 3.92857,6.07142"
       id="path3289"
       inkscape:connector-curvature="0" />
    <path
       style="fill:none;stroke:#000000;stroke-width:1px;stroke-linecap:butt;stroke-linejoin:miter;stroke-opacity:1"
       d="m 228.21429,149.1479 c 1.03402,-0.73259 1.36879,-1.42858 2.5,-1.42858"
       id="path3291"
       inkscape:connector-curvature="0" />
    <path
       style="fill:none;stroke:#000000;stroke-width:1px;stroke-linecap:butt;stroke-linejoin:miter;stroke-opacity:1"
       d="m 228.21429,145.57647 c 1.39942,-1.73865 3.67801,-2.5 5.71428,-2.5"
       id="path3293"
       inkscape:connector-curvature="0" />
    <path
       style="fill:none;stroke:#000000;stroke-width:1px;stroke-linecap:butt;stroke-linejoin:miter;stroke-opacity:1"
       d="m 234.64286,144.86218 c -0.16603,3.15721 -1.42857,6.15581 -1.42857,9.28572 0,0.47619 0.47619,1.42857 0,1.42857 -0.19068,0 0.18609,-8.21429 0.35714,-8.21429 0.27359,0 0.7442,6.04151 2.14286,4.64286 1.8102,-1.81021 2.14285,-4.6425 2.14285,-7.14286 0,-0.35714 -0.0866,0.72495 0,1.07143 0.30506,1.22024 4.27236,9.259 2.5,5.71429"
       id="path3295"
       inkscape:connector-curvature="0" />
    <path
       style="fill:none;stroke:#000000;stroke-width:1px;stroke-linecap:butt;stroke-linejoin:miter;stroke-opacity:1"
       d="m 243.57143,144.1479 c 0,0.71428 0.0886,1.43408 0,2.14285 -0.16131,1.29045 -0.70742,2.8846 -0.35714,4.28572 0.87598,3.50394 4.9677,1.85029 6.07142,-0.35715"
       id="path3297"
       inkscape:connector-curvature="0" />
    <path
       style="fill:none;stroke:#000000;stroke-width:1px;stroke-linecap:butt;stroke-linejoin:miter;stroke-opacity:1"
       d="m 242.85714,149.86218 c 1.26,-0.5933 1.63855,-1.42857 2.85715,-1.42857"
       id="path3299"
       inkscape:connector-curvature="0" />
    <path
       style="fill:none;stroke:#000000;stroke-width:1px;stroke-linecap:butt;stroke-linejoin:miter;stroke-opacity:1"
       d="m 241.78571,145.57647 c -0.59157,-0.71895 1.83584,-2.14286 5.71429,-2.14286"
       id="path3301"
       inkscape:connector-curvature="0" />
    <path
       style="fill:none;stroke:#000000;stroke-width:1px;stroke-linecap:butt;stroke-linejoin:miter;stroke-opacity:1"
       d="m 250,143.79075 c -0.44845,1.7938 -0.20192,0.96292 -0.71429,2.5 -0.38607,1.15822 -0.77955,2.40392 -1.07142,3.57143 -0.1155,0.46197 0.47619,1.42857 0,1.42857 -0.14927,0 0.30186,-4.64285 0.71428,-4.64285 0.64676,0 1.38106,5.71428 2.85714,5.71428 1.57253,0 2.5,-4.60025 2.5,-5.71428 0,-0.95239 -0.95238,-2.85715 0,-2.85715 0.5324,0 0.33783,1.05211 0.71429,1.42857"
       id="path3303"
       inkscape:connector-curvature="0" />
    <path
       style="fill:none;stroke:#000000;stroke-width:1px;stroke-linecap:butt;stroke-linejoin:miter;stroke-opacity:1"
       d="m 258.57143,144.50504 c 1.38751,1.77949 1.43351,6.43845 1.78571,7.14286"
       id="path3305"
       inkscape:connector-curvature="0" />
    <path
       style="fill:none;stroke:#000000;stroke-width:1px;stroke-linecap:butt;stroke-linejoin:miter;stroke-opacity:1"
       d="m 254.28571,145.93361 c 0,-0.59524 -0.22106,-1.23305 0,-1.78571 0.36095,-0.90237 10.15279,-0.0681 11.42858,0.35714"
       id="path3307"
       inkscape:connector-curvature="0" />
    <path
       style="fill:none;stroke:#000000;stroke-width:1px;stroke-linecap:butt;stroke-linejoin:miter;stroke-opacity:1"
       d="m 190,102.00504 c 4.32656,-0.39863 9.04116,0.68614 13.21429,-0.35714 0.50355,-0.12589 1.72464,-0.71429 2.14285,-0.71429 0.37646,0 -0.35714,0.69497 -0.35714,1.07143 0,1.38861 0.35714,2.8008 0.35714,4.28571 0,4.44699 0.35715,10.08104 0.35715,13.57143"
       id="path3309"
       inkscape:connector-curvature="0" />
    <path
       style="fill:none;stroke:#000000;stroke-width:1px;stroke-linecap:butt;stroke-linejoin:miter;stroke-opacity:1"
       d="m 264.28571,99.147895 c -4.75956,0.924495 -9.8859,0.120038 -14.64285,1.071425 -0.86911,0.17383 -1.96371,0 -2.85715,0 -0.35714,0 -1.07142,0.35715 -1.07142,0 0,-0.499996 0.35714,-0.14285 0.35714,0.35715 0,1.61623 0,2.98932 0,4.64285 0,4.30236 -1.42857,8.28932 -1.42857,12.5 0,1.40946 -0.72014,3.20259 0,4.64286 0.16836,0.33672 0.7336,1.07143 0.35714,1.07143 -0.37646,0 -0.18878,-0.73471 -0.35714,-1.07143"
       id="path3311"
       inkscape:connector-curvature="0" />
    <path
       style="fill:none;stroke:#000000;stroke-width:1px;stroke-linecap:butt;stroke-linejoin:miter;stroke-opacity:1"
       d="m 211.07143,119.50504 c -1.1184,-4.00188 3.30787,-14.81282 1.78571,-17.85714 -0.11918,-0.23837 -0.82905,-2.385234 -0.71428,-2.500005 0.3489,-0.348898 2.75605,0 3.21428,0 6.33367,0 13.42972,0 19.64286,0 0.62156,0 -0.62872,5.372035 -0.71429,5.714285 -0.71044,2.84176 0.38762,12.46953 -1.07142,13.92857 -0.34942,0.34942 0.44328,3.57143 -0.35715,3.57143 -0.59523,0 0,-1.19048 0,-1.78571"
       id="path3319"
       inkscape:connector-curvature="0" />
    <path
       style="fill:none;stroke:#000000;stroke-width:1px;stroke-linecap:butt;stroke-linejoin:miter;stroke-opacity:1"
       d="m 219.28571,104.86218 c -3.35644,3.85913 -3.52733,8.65962 -1.42857,12.85714 0.41582,0.83163 2.14286,0.85593 2.14286,1.78572 0,0.49084 0.0101,-1.08149 0.35714,-1.42857 2.41595,0.93402 3.28109,-1.13823 4.64286,-2.5 3.00422,-3.00422 2.82304,-7.21107 1.07143,-10.71429 -2.26191,0 -4.52381,0 -6.78572,0 z"
       id="path3321"
       inkscape:connector-curvature="0" />
    <path
       style="fill:none;stroke:#000000;stroke-width:1px;stroke-linecap:butt;stroke-linejoin:miter;stroke-opacity:1"
       d="m 219.28571,108.79075 c 0.0539,1.10078 1.6467,0 4.28572,0"
       id="path3323"
       inkscape:connector-curvature="0" />
    <path
       style="fill:none;stroke:#000000;stroke-width:1px;stroke-linecap:butt;stroke-linejoin:miter;stroke-opacity:1"
       d="m 261.78571,103.43361 c -1.58658,-0.43752 -2.33703,-0.71429 -3.92857,-0.71429 -2.13027,0 -8.6212,1.75253 -4.28571,4.64286 3.37909,2.25273 5.83914,1.08886 7.14286,5 0.30301,0.90905 0.7693,1.74903 -0.35715,2.5 -2.68652,1.79102 -7.29698,4.48873 -9.64285,2.14286 -0.60067,-0.60067 -0.70997,-0.36146 0,-1.07143"
       id="path3325"
       inkscape:connector-curvature="0" />
    <path
       style="fill:none;stroke:#000000;stroke-width:1px;stroke-linecap:butt;stroke-linejoin:miter;stroke-opacity:1"
       d="m 256.78571,99.862181 c -2.85886,5.259549 -1.10289,11.880109 -2.85714,17.142859 -0.15058,0.45175 0.47619,1.42857 0,1.42857 -0.57762,0 -0.0996,-1.58643 0,-1.78571"
       id="path3327"
       inkscape:connector-curvature="0" />
    <path
       style="fill:none;stroke:#000000;stroke-width:1px;stroke-linecap:butt;stroke-linejoin:miter;stroke-opacity:1"
       d="m 260.35714,99.147895 c -1.0393,1.041105 -1.39777,2.213625 -1.78571,3.571425 -1.13881,3.98584 -2.14286,8.02435 -2.14286,12.14286 0,1.37928 -0.21314,4.35485 0.35714,3.21429"
       id="path3329"
       inkscape:connector-curvature="0" />
    <path
       style="fill:none;stroke:#000000;stroke-width:1px;stroke-linecap:butt;stroke-linejoin:miter;stroke-opacity:1"
       d="m 193.92857,116.6479 c 10.84873,0 10.70304,-15.70679 3.21429,-10.71429 -1.78877,1.19251 -4.15751,2.43457 -4.64286,4.64286 -0.43439,-1.81157 2.85086,-7.5 3.21429,-7.5 0.46401,0 2.21088,5.28911 1.07142,6.42857 -0.61317,0.61317 -3.4606,1.07143 -4.28571,1.07143"
       id="path3331"
       inkscape:connector-curvature="0" />
    <path
       style="fill:none;stroke:#000000;stroke-width:1px;stroke-linecap:butt;stroke-linejoin:miter;stroke-opacity:1"
       d="m 231.07143,29.862181 c -10.57414,-2.285542 -20.09103,5.151722 -25.35714,13.928571 -4.4206,7.367669 -0.38228,14.879295 4.28571,20.714286 6.03959,7.549484 7.90657,11.003668 18.21429,9.285714 2.82142,-0.470238 5.85128,-1.442032 8.21428,-3.214285 6.14224,-4.606676 10.6608,-10.857494 12.5,-18.214286 0.69466,-2.778621 -0.6955,-5.648525 -1.42857,-8.214286 -3.3878,-11.857296 -16.04074,-14.094784 -26.42857,-9.642857"
       id="path3337"
       inkscape:connector-curvature="0" />
    <path
       style="fill:none;stroke:#000000;stroke-width:1px;stroke-linecap:butt;stroke-linejoin:miter;stroke-opacity:1"
       d="m 216.07143,35.576467 c -0.47619,-0.238096 -1.66667,-0.238096 -1.42857,-0.714286 0.23809,-0.47619 1.80503,1.090747 1.42857,0.714286 -0.91664,-0.916643 -2.02739,-0.598818 -2.5,-1.071429 -0.11905,-0.119047 -0.35714,-0.525501 -0.35714,-0.357143 0,1.064795 2.0558,0.7274 2.85714,1.428572 2.22069,1.943102 5.77681,11.281262 6.78571,11.785714 1.34576,0.67288 3.54208,0.485974 5,0 7.62778,-2.542592 3.77071,-8.056425 6.07143,-10.357143 2.24013,-2.240126 3.02394,1.523747 4.64286,0.714286 1.43225,-0.716124 3.27837,-3.24633 3.92857,-3.571429"
       id="path3339"
       inkscape:connector-curvature="0" />
    <path
       style="fill:none;stroke:#000000;stroke-width:1px;stroke-linecap:butt;stroke-linejoin:miter;stroke-opacity:1"
       d="m 248.21429,53.790752 c -5.98248,-2.900345 -5.27829,-1.864571 -8.92858,1.785715 -0.64286,0.642859 -0.26831,2.277013 -1.42857,2.857143 -3.05821,1.529107 -5.57063,-1.5004 -7.14285,-0.714286 -5.60878,2.80439 -0.0807,10.633631 2.14285,12.857143 0.42924,0.429232 0.0857,1.242773 0.35715,1.785714"
       id="path3341"
       inkscape:connector-curvature="0" />
    <path
       style="fill:none;stroke:#000000;stroke-width:1px;stroke-linecap:butt;stroke-linejoin:miter;stroke-opacity:1"
       d="m 219.28571,74.147895 c -0.37876,-0.820891 1.22195,-4.38011 2.5,-8.214285 0.39368,-1.181026 1.93994,-1.737019 2.5,-2.857143 0.89125,-1.782501 1.37619,-4.590472 2.85715,-6.071429 0.8072,-0.807197 2.47693,0.04613 3.21428,-1.428571 0.38985,-0.779684 -0.98784,-2.77356 -1.42857,-3.214286 -0.53571,-0.535714 -1.96428,-0.178571 -2.5,-0.714286 -3.40755,-3.407556 -9.77572,6.561437 -11.07143,7.857143 -1.15231,1.152313 -7.4359,-2.371801 -6.07143,0.357143"
       id="path3343"
       inkscape:connector-curvature="0" />
    <path
       style="fill:none;stroke:#000000;stroke-width:1px;stroke-linecap:butt;stroke-linejoin:miter;stroke-opacity:1"
       d="m 208.21429,42.362181 c 4.51517,1.91818 -1.28987,9.642857 -5.35715,9.642857"
       id="path3345"
       inkscape:connector-curvature="0" />
    <path
       style="fill:none;stroke:#000000;stroke-width:1px;stroke-linecap:butt;stroke-linejoin:miter;stroke-opacity:1"
       d="m 239.28571,45.93361 c 0.80094,-4.217637 0.96351,3.03182 0,-1.785715 -0.40168,-2.008429 -9.069,2.359571 -6.07142,5.357143 1.39492,1.394926 7.62831,0.320788 6.07142,-3.571428 z"
       id="path3347"
       inkscape:connector-curvature="0" />
    <path
       style="fill:none;stroke:#000000;stroke-width:1px;stroke-linecap:butt;stroke-linejoin:miter;stroke-opacity:1"
       d="M 203.92857,9.862181 C 203.45238,9.5050381 202.14286,9.2669429 202.5,8.7907524 c 0.35714,-0.4761905 2.02381,1.0714286 1.42857,1.0714286 -2.3319,0 -2.05958,-1.93252 -4.64286,-1.0714286 -2.98491,0.9949727 -3.76177,7.1428576 0,7.1428576 2.10792,0 7.56486,-3.14943 4.64286,-6.071429 -1.15576,-1.1557643 -3.99139,-0.9457871 -4.64286,0.357143"
       id="path3349"
       inkscape:connector-curvature="0" />
    <path
       style="fill:none;stroke:#000000;stroke-width:1px;stroke-linecap:butt;stroke-linejoin:miter;stroke-opacity:1"
       d="m 201.07143,19.505038 c -0.18874,-0.910434 -1.21307,-1.785714 -2.14286,-1.785714 -3.56751,0 -5.81881,6.045298 -1.42857,7.142857 2.83964,0.709909 9.23395,-3.623198 6.78571,-6.071429 -3.06294,-3.062941 -3.20317,0.709841 -3.21428,0.714286 -0.74148,0.296591 -1.42857,-0.714286 -2.14286,-1.071428"
       id="path3351"
       inkscape:connector-curvature="0" />
    <path
       style="fill:none;stroke:#000000;stroke-width:1px;stroke-linecap:butt;stroke-linejoin:miter;stroke-opacity:1"
       d="m 200,30.576467 c 0.21599,0.262078 1.95987,-1.341494 -0.35714,-2.5 -2.5924,-1.296198 -5.2421,3.029717 -3.92857,5 2.13009,3.195145 10.08996,0.449816 9.28571,-3.571429 -0.60439,-3.021954 -4.70527,-5.589457 -6.42857,-2.142857"
       id="path3353"
       inkscape:connector-curvature="0" />
    <path
       style="fill:none;stroke:#000000;stroke-width:1px;stroke-linecap:butt;stroke-linejoin:miter;stroke-opacity:1"
       d="m 207.85714,13.790752 c 0.35715,-0.47619 0.59524,-1.785714 1.07143,-1.428571 0.47619,0.357143 -1.33763,0.896174 -1.07143,1.428571 0.26643,0.532848 4.59444,0 6.42857,0 4.06065,-3.165917 1.76799,-2.553193 2.85715,0.714286 0.0711,0.21344 -0.1848,0.714286 0.35714,0.714286 0.29021,0 1.95066,-4.642857 2.14286,-4.642857 0.62519,0 1.32689,2.806303 2.14285,3.214285 1.84312,0.921557 2.21623,-3.571428 2.5,-3.571428 1.02409,0 0.86975,2.042014 1.78572,2.5"
       id="path3355"
       inkscape:connector-curvature="0" />
    <path
       style="fill:none;stroke:#000000;stroke-width:1px;stroke-linecap:butt;stroke-linejoin:miter;stroke-opacity:1"
       d="m 228.92857,13.43361 c 4.88786,-0.233518 -3.98412,-0.357143 1.78572,-0.357143 0.50507,0 0.61967,0.845551 1.07142,1.071428 1.99426,0.997127 1.27373,-1.226277 2.85715,0.357143 0.69466,0.694663 2.05648,-0.849672 2.5,-1.071428 0.94928,-0.474643 3.19512,0 4.28571,0"
       id="path3357"
       inkscape:connector-curvature="0" />
    <path
       style="fill:none;stroke:#000000;stroke-width:1px;stroke-linecap:butt;stroke-linejoin:miter;stroke-opacity:1"
       d="m 245,13.076467 c 2.39335,-2.310305 2.69966,-2.04303 5.35714,-0.714286"
       id="path3359"
       inkscape:connector-curvature="0" />
    <path
       style="fill:none;stroke:#000000;stroke-width:1px;stroke-linecap:butt;stroke-linejoin:miter;stroke-opacity:1"
       d="m 208.92857,21.647895 c 0.47619,0.238096 0.93425,0.516559 1.42857,0.714286 0.79525,0.318097 1.8881,-0.765475 2.5,-1.071429 0.4566,-0.228299 1.66949,0.415256 2.5,0 1.41123,-0.705613 4.20075,0.442108 4.28572,0.357143 0.26572,-0.265725 0.92007,-2.142857 1.42857,-2.142857 0.0197,0 1.69609,3.750673 3.21428,0.714286"
       id="path3361"
       inkscape:connector-curvature="0" />
    <path
       style="fill:none;stroke:#000000;stroke-width:1px;stroke-linecap:butt;stroke-linejoin:miter;stroke-opacity:1"
       d="m 229.64286,23.43361 c 1.15934,-1.647303 1.50494,-0.357143 5.71428,-0.357143"
       id="path3363"
       inkscape:connector-curvature="0" />
    <path
       style="fill:none;stroke:#000000;stroke-width:1px;stroke-linecap:butt;stroke-linejoin:miter;stroke-opacity:1"
       d="m 238.21429,20.93361 c 0.8472,-3.247829 3.05089,1.153125 5.35714,0 2.80281,-1.401407 6.47272,-0.379218 9.28571,-1.785715"
       id="path3365"
       inkscape:connector-curvature="0" />
    <path
       style="fill:none;stroke:#000000;stroke-width:1px;stroke-linecap:butt;stroke-linejoin:miter;stroke-opacity:1"
       d="m 209.64286,29.505038 c 2.25976,-0.995472 7.63851,-1.359313 10.35714,0"
       id="path3367"
       inkscape:connector-curvature="0" />
    <path
       style="fill:none;stroke:#000000;stroke-width:1px;stroke-linecap:butt;stroke-linejoin:miter;stroke-opacity:1"
       d="m 224.28571,29.505038 c 1.90477,0 1.90477,0 0,0 z"
       id="path3369"
       inkscape:connector-curvature="0" />
    <path
       style="fill:none;stroke:#000000;stroke-width:1px;stroke-linecap:butt;stroke-linejoin:miter;stroke-opacity:1"
       d="m 231.78571,29.505038 c 0.4762,-0.357143 0.89618,-0.80523 1.42858,-1.071428 1.43355,-0.716775 1.69987,0.985591 2.14285,1.428571 0.11627,0.116267 2.18974,-1.381696 2.5,-1.071429 0.49913,0.499127 0.65115,2.142858 1.42857,2.142858 1.18796,0 2.66668,-1.595246 3.21429,-2.142858 0.49796,-0.497959 4.79598,1.377529 6.78571,0.714286"
       id="path3371"
       inkscape:connector-curvature="0" />
    <path
       style="fill:none;stroke:#000000;stroke-width:1px;stroke-linecap:butt;stroke-linejoin:miter;stroke-opacity:1"
       d="m 198.57143,73.790752 c -1.75088,-1.478359 -3.61393,-0.986427 -4.64286,1.071429 -3.06803,6.136062 7.40054,7.341774 10,2.142857 1.34029,-2.680567 -2.13979,-5.788166 -5.35714,-3.214286 z"
       id="path3373"
       inkscape:connector-curvature="0" />
    <path
       style="fill:none;stroke:#000000;stroke-width:1px;stroke-linecap:butt;stroke-linejoin:miter;stroke-opacity:1"
       d="m 199.64286,82.362181 c -0.9516,-0.902924 -3.59,-1.936428 -4.64286,-0.357143 -4.00843,6.012647 4.55724,9.995114 8.57143,4.642857 0.86587,-1.154492 -0.0393,-5.958147 -2.14286,-5.357142 -1.96465,0.56133 -2.14425,1.011673 -3.92857,0.714285"
       id="path3375"
       inkscape:connector-curvature="0" />
    <path
       style="fill:none;stroke:#000000;stroke-width:1px;stroke-linecap:butt;stroke-linejoin:miter;stroke-opacity:1"
       d="m 199.28571,90.93361 c -3.7911,-1.585912 -8.87004,2.110593 -7.14285,6.428571 1.78869,4.471719 10.36109,0.69455 11.07143,-2.857143 0.68007,-3.40039 -5.9966,-4.755108 -7.5,-2.5"
       id="path3377"
       inkscape:connector-curvature="0" />
    <path
       style="fill:none;stroke:#000000;stroke-width:1px;stroke-linecap:butt;stroke-linejoin:miter;stroke-opacity:1"
       d="m 205.71429,78.076467 c 0.23582,0.544451 1.99479,-1.933782 2.5,-1.428572 0.16332,0.163325 2.47952,3.949048 3.57142,2.857143 0.14568,-0.145672 2.2252,-1.703375 2.5,-1.428571 1.96644,1.966439 3.35962,0.820194 5.71429,-0.357143"
       id="path3379"
       inkscape:connector-curvature="0" />
    <path
       style="fill:none;stroke:#000000;stroke-width:1px;stroke-linecap:butt;stroke-linejoin:miter;stroke-opacity:1"
       d="m 227.14286,77.362181 c 0.31466,0.184331 -0.8116,2.045547 -0.35715,2.5 0.2617,0.261694 1.09125,-0.595375 1.07143,-0.714286 -0.10539,-0.632368 -1.1676,-1.332394 -0.71428,-1.785714 0.54048,-0.540486 2.33133,1.52281 2.85714,1.785714 1.58599,0.792996 2.6619,-1.590472 3.21429,-2.142857 0.15811,-0.158116 2.32851,0.985684 2.5,1.071429 1.28788,0.643941 2.59355,-1.296778 3.57142,-1.785714 0.33809,-0.169046 7.89681,0.357142 8.92858,0.357142"
       id="path3381"
       inkscape:connector-curvature="0" />
    <path
       style="fill:none;stroke:#000000;stroke-width:1px;stroke-linecap:butt;stroke-linejoin:miter;stroke-opacity:1"
       d="m 251.07143,75.93361 c 2.43124,-2.46061 6.19217,2.972802 7.5,0.357143"
       id="path3383"
       inkscape:connector-curvature="0" />
    <path
       style="fill:none;stroke:#000000;stroke-width:1px;stroke-linecap:butt;stroke-linejoin:miter;stroke-opacity:1"
       d="m 207.14286,86.647895 c 7.27352,-5.573734 3.10109,1.014833 6.07143,2.5 2.14187,1.070936 3.23397,-3.918726 4.64285,-3.214285 3.70083,1.850415 7.76285,4.022866 11.07143,0.714285"
       id="path3385"
       inkscape:connector-curvature="0" />
    <path
       style="fill:none;stroke:#000000;stroke-width:1px;stroke-linecap:butt;stroke-linejoin:miter;stroke-opacity:1"
       d="m 235,87.005038 c 0.95366,-0.899728 1.712,-1.142286 2.85714,-1.428571 2.11272,-0.52818 2.97838,1.725099 5,0.714286 0.49495,-0.247474 0.87283,-0.872829 1.07143,-1.071429 0.29043,-0.290433 1.76842,0.124814 2.14286,0 1.09992,-0.36664 2.95613,0.129077 3.92857,-0.357143 1.74449,-0.872246 3.60455,-2.48344 5.71429,-1.428571"
       id="path3387"
       inkscape:connector-curvature="0" />
    <path
       style="fill:none;stroke:#000000;stroke-width:1px;stroke-linecap:butt;stroke-linejoin:miter;stroke-opacity:1"
       d="m 207.85714,94.862181 c 0.31,0.987519 3.82241,-1.891876 4.28572,-1.428571 0.61638,0.616382 -0.0216,2.373751 1.42857,2.857143 2.6553,0.885099 6.52211,-0.875852 9.28571,-1.428572 1.82517,-0.365033 3.14832,1.428572 5,1.428572"
       id="path3389"
       inkscape:connector-curvature="0" />
    <path
       style="fill:none;stroke:#000000;stroke-width:1px;stroke-linecap:butt;stroke-linejoin:miter;stroke-opacity:1"
       d="m 236.78571,94.505038 c 0.4155,-1.352866 9.29345,0.531847 13.92858,-1.785714 2.55958,-1.279794 7.2097,0.401834 10,-0.714286"
       id="path3391"
       inkscape:connector-curvature="0" />
    <path
       style="fill:none;stroke:#000000;stroke-width:1px;stroke-linecap:butt;stroke-linejoin:miter;stroke-opacity:1"
       d="m 220,111.6479 c 1.15561,-0.63557 0.6226,0.40298 2.85714,-0.71429"
       id="path3393"
       inkscape:connector-curvature="0" />
    <path
       style="fill:none;stroke:#000000;stroke-width:1px;stroke-linecap:butt;stroke-linejoin:miter;stroke-opacity:1"
       d="m 273.21429,5.9336095 c 1.94338,5.2424275 4.60134,18.6544465 1.78571,24.2857145 -1.17249,2.344974 2.09014,23.770419 2.85714,26.071428 1.30046,3.901357 3.63578,13.735534 2.14286,18.214286 -0.51042,1.531258 -0.90063,5.155259 -0.35714,6.785715 1.32853,3.98561 0.71428,23.311777 0.71428,29.285717 0,1.25044 -1.50719,9.92138 -1.07143,10.35714 0.32457,0.32457 3.93018,0.11851 4.28572,0 7.0268,-2.34227 15.46572,-0.86953 22.5,-3.21429 1.30548,-0.43516 19.76759,-2.6162 21.42857,-1.78571 2.78071,1.39036 16.22601,2.70257 18.21429,0.71429 0.77381,-0.77381 3.86904,0.7738 4.64285,0 1.16468,-1.16469 -1.07143,-16.717213 -1.07143,-18.928576 0,-7.389817 3.21222,-20.008279 1.42858,-27.142857 C 349.68877,66.47442 351.02215,61.80793 350,57.719324 c -1.80765,-7.230588 -2.85714,-15.235949 -2.85714,-22.857143 0,-3.618703 0.71428,-6.954029 0.71428,-10.357143 0,-4.456236 -0.71428,-8.597028 -0.71428,-12.5 0,-2.1527421 -0.35715,-4.3969634 -0.35715,-6.0714285 0,-0.3339766 0.71049,-1.0752259 0.35715,-1.4285714 -0.92038,-0.9203734 -3.32337,-0.054539 -4.64286,-0.7142857 -6.19598,-3.09799256 -34.8658,2.5743159 -41.07143,4.6428571 -1.6076,0.5358679 -4.73233,0.089476 -5.71428,1.0714286 -0.27733,0.2773227 -16.08053,-0.366245 -16.78572,-1.0714286 -1.03428,-1.0342787 -4.06752,-1.8412928 -5.71428,-2.5 z"
       id="path3420"
       inkscape:connector-curvature="0" />
    <path
       style="fill:none;stroke:#000000;stroke-width:1px;stroke-linecap:butt;stroke-linejoin:miter;stroke-opacity:1"
       d="m 278.92857,14.862181 c 1.67927,0.691659 3.78195,1.554514 5.71429,1.071429 12.83483,-3.208708 25.2507,-4.285715 39.28571,-4.285715 0.86525,0 5.81114,0.617433 6.42857,0 0.17158,-0.171578 1.59587,-0.714285 2.14286,-0.714285 3.45009,0 10,-3.537409 10,1.785714 0,5 0,10 0,15 0,0.160708 0.75568,2.815749 0.71429,2.857143 -0.82337,0.823364 -8.54612,1.0651 -10,1.428571 -4.74638,1.186593 -10.11135,0.970938 -15,1.785714 -1.98035,0.330059 -3.72536,1.745072 -5.71429,2.142858 -4.15987,0.831973 -8.16169,2.129709 -12.5,3.214285 -3.97141,0.992853 -8.62361,0 -12.5,0 -1.19147,0 -6.61134,1.245807 -7.14286,0.714286 C 279.91414,39.419175 280.2125,37.285384 280,36.647895 278.40951,31.876437 279.88152,24.50675 278.57143,20.576467 278.20723,19.483883 277.5,18.207587 277.5,17.005038 c 0,-0.794184 -0.71429,-2.997644 -0.71429,-0.714286"
       id="path3436"
       inkscape:connector-curvature="0" />
    <path
       style="fill:none;stroke:#000000;stroke-width:1px;stroke-linecap:butt;stroke-linejoin:miter;stroke-opacity:1"
       d="m 282.14286,21.647895 c -0.54848,-1.752049 -1.198,-2.165424 -1.07143,-1.785714 0.21951,0.658539 1.00236,1.094998 1.07143,1.785714 0.0638,0.63791 -0.53817,1.16929 -0.71429,1.785715 -0.44332,1.551626 0.76577,6.837192 1.42857,7.5 0.56154,0.561536 10.28127,-0.995552 10.71429,-1.428572 0.27701,-0.277009 -0.92052,-3.118712 -1.07143,-3.571428 -0.23859,-0.715774 -0.88701,-5.529872 -1.07143,-5.714286 -1.86718,-1.867178 -7.8192,0.255363 -9.28571,1.428571 z"
       id="path3438"
       inkscape:connector-curvature="0" />
    <path
       style="fill:none;stroke:#000000;stroke-width:1px;stroke-linecap:butt;stroke-linejoin:miter;stroke-opacity:1"
       d="m 297.14286,21.290752 c 0.74722,1.194752 2.35475,-1.428571 2.5,-1.428571 0.0486,0 0.38849,1.754367 1.07143,1.071429 0.1381,-0.138103 0.75826,-1.384595 1.07142,-1.071429 0.0938,0.09376 0.65781,1.071429 0.71429,1.071429 0.59944,0 1.65688,-1.785715 1.78571,-1.785715 1.45776,0 1.81165,-0.714285 2.14286,-0.714285 0.21873,0 1.89758,0.714285 2.85714,0.714285"
       id="path3440"
       inkscape:connector-curvature="0" />
    <path
       style="fill:none;stroke:#000000;stroke-width:1px;stroke-linecap:butt;stroke-linejoin:miter;stroke-opacity:1"
       d="m 314.28571,19.505038 c 2.15579,0.182513 -0.0721,-1.356482 0.35715,-1.785714 0.42923,-0.429232 -0.72136,1.300093 -0.35715,1.785714 0.81227,1.08302 2.69366,-1.525398 3.21429,-1.785714 0.67045,-0.335227 1.34494,0.577528 1.78571,0.357143 0.82602,-0.413006 1.25401,-0.896859 1.78572,-1.428572 0.47787,-0.477873 2.3643,1.674991 3.57143,1.071429 2.11553,-1.057766 3.20934,-2.142857 5.71428,-2.142857"
       id="path3442"
       inkscape:connector-curvature="0" />
    <path
       style="fill:none;stroke:#000000;stroke-width:1px;stroke-linecap:butt;stroke-linejoin:miter;stroke-opacity:1"
       d="m 335,17.362181 c 1.90608,0.200311 1.26029,-1.785714 5,-1.785714"
       id="path3444"
       inkscape:connector-curvature="0" />
    <path
       style="fill:none;stroke:#000000;stroke-width:1px;stroke-linecap:butt;stroke-linejoin:miter;stroke-opacity:1"
       d="m 297.85714,28.790752 c 0.30001,-1.711281 2.2248,-0.933826 6.07143,-2.857142 0.98129,-0.490642 1.79373,0.706271 2.85714,-0.357143 0.44048,-0.440476 0.67858,0.321428 0.71429,0.357143 0.60436,0.604361 3.08882,-0.472982 3.57143,-0.714286"
       id="path3446"
       inkscape:connector-curvature="0" />
    <path
       style="fill:none;stroke:#000000;stroke-width:1px;stroke-linecap:butt;stroke-linejoin:miter;stroke-opacity:1"
       d="m 317.14286,27.362181 c 1.66459,-0.250535 1.99667,-1.639526 2.85714,-2.5 0.20135,-0.201354 0.93392,1.140183 1.78571,0.714286 0.78754,-0.39377 1.3698,-1.042041 2.14286,-1.428572 0.99268,-0.496339 6.15464,-0.398745 8.21429,-1.428571"
       id="path3448"
       inkscape:connector-curvature="0" />
    <path
       style="fill:none;stroke:#000000;stroke-width:1px;stroke-linecap:butt;stroke-linejoin:miter;stroke-opacity:1"
       d="m 291.78571,36.290752 c 2.56862,-1.130112 4.74506,-1.658239 7.14286,-2.857142 0.53963,-0.269815 1.83403,1.071428 2.5,1.071428 0.20603,0 4.8003,-1.864435 5.35714,-2.142857"
       id="path3450"
       inkscape:connector-curvature="0" />
    <path
       style="fill:none;stroke:#000000;stroke-width:1px;stroke-linecap:butt;stroke-linejoin:miter;stroke-opacity:1"
       d="m 315.71429,31.647895 c 4.84498,-2.097529 9.08482,-2.5 14.64285,-2.5"
       id="path3452"
       inkscape:connector-curvature="0" />
    <path
       style="fill:none;stroke:#000000;stroke-width:1px;stroke-linecap:butt;stroke-linejoin:miter;stroke-opacity:1"
       d="m 334.28571,28.076467 c 0.4762,-0.357143 1.07143,-1.547619 1.42858,-1.071429 0.35714,0.476191 -0.95238,0.714286 -1.42858,1.071429 z"
       id="path3454"
       inkscape:connector-curvature="0" />
    <path
       style="fill:none;stroke:#000000;stroke-width:1px;stroke-linecap:butt;stroke-linejoin:miter;stroke-opacity:1"
       d="m 284.28571,44.862181 c 0.36561,6.539161 2.14286,13.222037 2.14286,20 0,1.309524 0,2.619048 0,3.928571 0,0.154762 0.44048,0.714286 0.35714,0.714286 -1.24289,0 2.34545,-0.867098 3.57143,-1.071428 2.05591,-0.342651 4.02633,-1.376693 6.07143,-1.785715 5.25476,-1.050951 10.62341,-2.481824 16.07143,-3.571428 2.02949,-0.405899 4.38873,-0.06574 6.42857,-0.357143 1.43054,-0.204363 14.96762,-0.90905 16.07143,-0.357143 0.76403,0.382017 1.41393,0.714286 2.14286,0.714286 0.55307,0 2.01749,0.482504 2.14285,0.357143 0.22654,-0.22654 -0.14867,-1.131219 0,-1.428572 2.85656,-5.713119 1.70101,-15.169408 -1.07142,-20.714286 -0.37661,-0.753209 0.57247,-2.998952 0,-3.571428 -0.0949,-0.09486 -8.93844,2.680216 -10,2.857143 -8.21074,1.368455 -17.2854,1.19635 -25.35715,3.214285 -2.02998,0.507495 -5.07982,-1.388658 -7.14285,-0.357142 -2.76911,1.384552 -8.24273,2.065739 -11.42858,1.428571 z"
       id="path3456"
       inkscape:connector-curvature="0" />
    <path
       style="fill:none;stroke:#000000;stroke-width:1px;stroke-linecap:butt;stroke-linejoin:miter;stroke-opacity:1"
       d="m 288.57143,49.147895 c -0.2381,0.476191 -0.60988,0.906513 -0.71429,1.428572 -0.21618,1.080929 2.14286,6.613548 2.14286,8.571428 0,0.396699 -0.25254,2.247462 0,2.5 0.13049,0.130495 10.22685,-2.369705 10.35714,-2.5 0.69879,-0.698783 -1.22025,-5.595293 -1.42857,-6.428571 -0.10835,-0.433396 -0.3952,-4.68092 -0.71428,-5 -1.0278,-1.027798 -6.67588,3.447775 -7.85715,2.857143 -0.6818,-0.340901 -1.19047,-0.952381 -1.78571,-1.428572 z"
       id="path3458"
       inkscape:connector-curvature="0" />
    <path
       style="fill:none;stroke:#000000;stroke-width:1px;stroke-linecap:butt;stroke-linejoin:miter;stroke-opacity:1"
       d="m 303.92857,50.93361 c 0.11905,-0.476191 -0.11905,-1.547619 0.35714,-1.428572 0.4762,0.119048 -0.79616,1.209059 -0.35714,1.428572 1.16425,0.582124 4.8602,-2.360197 5.35714,-2.857143 0.01,-0.0099 1.26639,0.714285 1.78572,0.714285 1.58714,0 1.93192,-0.78739 3.21428,-1.428571 1.52531,-0.762653 3.26867,1.374194 5.35715,-0.714286 0.23326,-0.233264 2.59169,1.071429 3.21428,1.071429"
       id="path3460"
       inkscape:connector-curvature="0" />
    <path
       style="fill:none;stroke:#000000;stroke-width:1px;stroke-linecap:butt;stroke-linejoin:miter;stroke-opacity:1"
       d="m 326.42857,46.290752 c 0.69235,-0.480929 5.63939,0.382111 10,-1.071428"
       id="path3462"
       inkscape:connector-curvature="0" />
    <path
       style="fill:none;stroke:#000000;stroke-width:1px;stroke-linecap:butt;stroke-linejoin:miter;stroke-opacity:1"
       d="m 304.28571,57.719324 c 0.43159,-5.055147 2.56468,-0.389483 3.92858,-1.071429 1.3261,-0.663053 2.57835,-1.824892 3.92857,-2.5 0.13728,-0.06864 1.61018,1.162233 2.14285,1.428572 0.55005,0.275023 1.98231,-0.812579 2.5,-1.071429 0.55467,-0.277331 4.21863,1.071429 5.71429,1.071429"
       id="path3464"
       inkscape:connector-curvature="0" />
    <path
       style="fill:none;stroke:#000000;stroke-width:1px;stroke-linecap:butt;stroke-linejoin:miter;stroke-opacity:1"
       d="m 326.07143,56.647895 c 0.73963,0.07747 2.95671,-3.571428 3.57143,-3.571428 0.0262,0 -0.0328,1.005898 0,1.071428 0.31572,0.631447 0.7323,1.089448 1.07143,1.428572 0.42951,0.429515 2.07087,-1.35659 2.14285,-1.428572 0.52012,-0.520118 4.29784,0 5,0"
       id="path3466"
       inkscape:connector-curvature="0" />
    <path
       style="fill:none;stroke:#000000;stroke-width:1px;stroke-linecap:butt;stroke-linejoin:miter;stroke-opacity:1"
       d="m 280.71429,100.21932 c 1.06771,-1.062847 21.1955,-5.590207 21.78571,-4.999996 0.23955,0.239546 1.28726,19.360226 2.5,21.785716"
       id="path3468"
       inkscape:connector-curvature="0" />
    <path
       style="fill:none;stroke:#000000;stroke-width:1px;stroke-linecap:butt;stroke-linejoin:miter;stroke-opacity:1"
       d="m 292.14286,113.79075 c 0,0.80503 2.29276,-0.65695 2.85714,-1.78571 1.27868,-2.55736 2.78904,-5.1362 1.07143,-8.57143 -0.72698,-1.45397 -6.65212,-0.60251 -7.85714,0 -1.60525,0.80262 -2.40627,3.12372 -3.57143,4.28571 1.70556,-1.03441 0.39538,-1.54329 0.71428,-2.5 0.19957,-0.5987 1.63511,-5.357139 1.78572,-5.357139 0.55936,0 4.74044,5.876269 4.64285,6.071429 -0.65227,1.30456 -7.27814,1.88718 -8.57142,2.85714"
       id="path3470"
       inkscape:connector-curvature="0" />
    <path
       style="fill:none;stroke:#000000;stroke-width:1px;stroke-linecap:butt;stroke-linejoin:miter;stroke-opacity:1"
       d="m 286.78571,127.36218 c -2.30525,4.37943 -0.57275,8.99934 3.57143,11.07143 0.6125,0.30625 2.41621,0.0838 2.85715,-0.35714 3.64114,-3.64115 0.35714,-9.60688 0.35714,-8.21429"
       id="path3472"
       inkscape:connector-curvature="0" />
    <path
       style="fill:none;stroke:#000000;stroke-width:1px;stroke-linecap:butt;stroke-linejoin:miter;stroke-opacity:1"
       d="m 298.92857,130.57647 c 2.55357,6.53869 0.77237,9.26846 0,0 -0.15411,-1.84938 -0.77171,-1.69958 0,-2.85715 2.77776,-4.16664 6.72186,5.54589 0,2.85715 z"
       id="path3474"
       inkscape:connector-curvature="0" />
    <path
       style="fill:none;stroke:#000000;stroke-width:1px;stroke-linecap:butt;stroke-linejoin:miter;stroke-opacity:1"
       d="m 308.21429,127.36218 c 0.99962,-4.76902 0.35714,3.73259 0.35714,-1.78571 0,-0.2381 -0.71429,-0.2381 -0.71429,0 0,0.60702 0.78638,1.35648 0.35715,1.78571 -0.42924,0.42923 -1.18695,-0.45694 -1.78572,-0.35714 -0.89575,0.14929 -1.42857,5.32125 -1.42857,6.07143 0,1.02199 0.52806,2.2568 1.42857,2.85714 4.09305,2.7287 4.93324,-4.60948 1.42857,-2.85714"
       id="path3476"
       inkscape:connector-curvature="0" />
    <path
       style="fill:none;stroke:#000000;stroke-width:1px;stroke-linecap:butt;stroke-linejoin:miter;stroke-opacity:1"
       d="m 312.14286,129.86218 c 0.12497,0.0462 0.90713,4.28572 0.71428,4.28572 -1.3088,0 -2.26398,-10.87371 2.5,-9.28572 2.65271,0.88424 1.59479,3.17891 -0.35714,4.64286 -0.34339,0.25754 -0.6422,0.71428 -1.07143,0.71428 -0.60702,0 -1.51424,-0.90008 -1.78571,-0.35714 -1.07994,2.15989 4.88159,3.98778 5.71428,3.57143"
       id="path3478"
       inkscape:connector-curvature="0" />
    <path
       style="fill:none;stroke:#000000;stroke-width:1px;stroke-linecap:butt;stroke-linejoin:miter;stroke-opacity:1"
       d="m 320.35714,126.6479 c 0.517,0.44889 0.39582,6.78571 0,6.78571 -0.0141,0 0.70648,-2.46097 0.71429,-2.5 0.31488,-1.57442 -0.71429,-2.76201 -0.71429,-4.28571 0,-0.69417 1.32924,-2.43023 1.07143,-1.78572 -1.67621,4.19053 0.18816,-1.22125 1.42857,2.5 0.60532,1.81596 0.27684,4.12509 1.07143,5.71429"
       id="path3480"
       inkscape:connector-curvature="0" />
    <path
       style="fill:none;stroke:#000000;stroke-width:1px;stroke-linecap:butt;stroke-linejoin:miter;stroke-opacity:1"
       d="m 318.92857,132.36218 c 1.4982,-0.92559 3.10396,-0.65912 4.64286,-1.42857"
       id="path3482"
       inkscape:connector-curvature="0" />
    <path
       style="fill:none;stroke:#000000;stroke-width:1px;stroke-linecap:butt;stroke-linejoin:miter;stroke-opacity:1"
       d="m 325.35714,127.36218 c 1.60635,0.84121 2.14286,3.18672 2.14286,5"
       id="path3484"
       inkscape:connector-curvature="0" />
    <path
       style="fill:none;stroke:#000000;stroke-width:1px;stroke-linecap:butt;stroke-linejoin:miter;stroke-opacity:1"
       d="m 326.07143,129.50504 c -0.35714,-0.83334 -0.73471,-1.65821 -1.07143,-2.5 -1.52242,-3.80606 5.01249,-4.98751 7.14286,-2.85714 3.08959,3.08959 -2.7938,9.28571 -5.35715,9.28571"
       id="path3486"
       inkscape:connector-curvature="0" />
    <path
       style="fill:none;stroke:#000000;stroke-width:1px;stroke-linecap:butt;stroke-linejoin:miter;stroke-opacity:1"
       d="m 332.5,126.29075 c 1.73159,3.51252 1.15724,7.5 6.07143,7.5 1.32924,0 2.4639,-0.32104 3.21428,-1.07143"
       id="path3488"
       inkscape:connector-curvature="0" />
    <path
       style="fill:none;stroke:#000000;stroke-width:1px;stroke-linecap:butt;stroke-linejoin:miter;stroke-opacity:1"
       d="m 334.64286,130.21932 c 1.27969,-1.89101 3.45346,-1.01244 5,-1.78571"
       id="path3490"
       inkscape:connector-curvature="0" />
    <path
       style="fill:none;stroke:#000000;stroke-width:1px;stroke-linecap:butt;stroke-linejoin:miter;stroke-opacity:1"
       d="m 332.5,125.57647 c 2.45046,-2.59034 5.58381,-2.85715 8.92857,-2.85715"
       id="path3492"
       inkscape:connector-curvature="0" />
    <path
       style="fill:none;stroke:#000000;stroke-width:1px;stroke-linecap:butt;stroke-linejoin:miter;stroke-opacity:1"
       d="m 292.85714,143.79075 c -6.0345,-3.18464 -7.01214,8.50608 -2.14285,6.07143 0.94391,-0.47195 2.14517,-1.43553 2.5,-2.5 0.33695,-1.01085 -0.71429,-1.19655 -0.71429,-1.78571 0,-0.60703 0.90008,-1.51425 0.35714,-1.78572 -0.62087,-0.31044 -1.12717,0.85192 -1.78571,1.07143 -1.65122,0.55041 -1.7154,-0.81976 -3.21429,1.42857"
       id="path3494"
       inkscape:connector-curvature="0" />
    <path
       style="fill:none;stroke:#000000;stroke-width:1px;stroke-linecap:butt;stroke-linejoin:miter;stroke-opacity:1"
       d="m 297.14286,144.50504 c -0.71175,0.0808 -0.9986,6.42857 -1.07143,6.42857 -0.2381,0 0,-0.47619 0,-0.71429 0,-1.01982 -0.39516,-3.00654 0,-3.92857 0.27344,-0.63803 0.93529,-1.10503 1.07143,-1.78571 0.11145,-0.55728 -0.45916,-3.62244 1.78571,-2.5 3.14607,1.57303 -1.07143,6.35806 -1.07143,5.35714 0,-0.62678 6.04737,3.57143 4.64286,3.57143"
       id="path3496"
       inkscape:connector-curvature="0" />
    <path
       style="fill:none;stroke:#000000;stroke-width:1px;stroke-linecap:butt;stroke-linejoin:miter;stroke-opacity:1"
       d="m 316.42857,140.93361 c -0.59524,-0.2381 -1.15106,-0.62362 -1.78571,-0.71429 -0.99856,-0.14265 -3.79184,2.41633 -3.21429,3.57143 1.11712,2.23423 5.50624,2.6491 6.78572,3.92857 0.85044,0.85045 -3.30032,2.81413 -3.92858,2.5"
       id="path3498"
       inkscape:connector-curvature="0" />
    <path
       style="fill:none;stroke:#000000;stroke-width:1px;stroke-linecap:butt;stroke-linejoin:miter;stroke-opacity:1"
       d="m 319.28571,142.00504 c 2.05763,1.60551 1.42858,4.0436 1.42858,6.42857"
       id="path3500"
       inkscape:connector-curvature="0" />
    <path
       style="fill:none;stroke:#000000;stroke-width:1px;stroke-linecap:butt;stroke-linejoin:miter;stroke-opacity:1"
       d="m 322.5,141.29075 c 0.0829,2.33721 1.42857,4.60555 1.42857,6.78572"
       id="path3502"
       inkscape:connector-curvature="0" />
    <path
       style="fill:none;stroke:#000000;stroke-width:1px;stroke-linecap:butt;stroke-linejoin:miter;stroke-opacity:1"
       d="m 317.85714,147.00504 c 2.10783,-1.1349 4.6895,-1.08698 6.78572,-1.78572"
       id="path3504"
       inkscape:connector-curvature="0" />
    <path
       style="fill:none;stroke:#000000;stroke-width:1px;stroke-linecap:butt;stroke-linejoin:miter;stroke-opacity:1"
       d="m 327.85714,141.6479 c -1.29913,-0.76854 -2.65276,-0.66372 -3.57143,0.71428 -3.18985,4.78479 4.91318,6.33189 6.42858,1.78572 1.15042,-3.45127 -5.08061,-3.80767 -6.42858,-1.78572"
       id="path3506"
       inkscape:connector-curvature="0" />
    <path
       style="fill:none;stroke:#000000;stroke-width:1px;stroke-linecap:butt;stroke-linejoin:miter;stroke-opacity:1"
       d="m 332.5,141.6479 c 0.76309,2.53776 2.26567,7.99124 0.71429,1.78571 -0.93333,-3.7333 -1.88201,-5.75155 2.85714,-6.42857 0.8477,-0.1211 3.62751,0.0561 4.28571,0.71428 2.61507,2.61508 -3.93205,5.35715 -5.71428,5.35715"
       id="path3508"
       inkscape:connector-curvature="0" />
    <path
       style="fill:none;stroke:#000000;stroke-width:1px;stroke-linecap:butt;stroke-linejoin:miter;stroke-opacity:1"
       d="m 301.42857,157.71932 c -0.67013,1.33914 -0.37011,7.85715 2.14286,7.85715 2.95978,0 4.08796,-8.09325 3.92857,-8.57143"
       id="path3510"
       inkscape:connector-curvature="0" />
    <path
       style="fill:none;stroke:#000000;stroke-width:1px;stroke-linecap:butt;stroke-linejoin:miter;stroke-opacity:1"
       d="m 310.35714,157.00504 c 1.21229,2.23709 -0.14871,8.92857 2.14286,8.92857"
       id="path3512"
       inkscape:connector-curvature="0" />
    <path
       style="fill:none;stroke:#000000;stroke-width:1px;stroke-linecap:butt;stroke-linejoin:miter;stroke-opacity:1"
       d="m 316.07143,157.00504 c 0.23809,-0.47619 0.23809,-1.66667 0.71428,-1.42857 0.4762,0.23809 -0.77307,0.89943 -0.71428,1.42857 0.0188,0.16914 1.71086,5.28229 2.14286,5.71428 2.01286,2.01287 5.60362,1.89638 7.5,0"
       id="path3514"
       inkscape:connector-curvature="0" />
    <path
       style="fill:none;stroke:#000000;stroke-width:1px;stroke-linecap:butt;stroke-linejoin:miter;stroke-opacity:1"
       d="m 319.64286,161.6479 c -0.47619,-0.11905 -1.54762,0.11904 -1.42857,-0.35715 0.11904,-0.47619 1.00239,0.60067 1.42857,0.35715 1.68404,-0.96232 0.9344,-2.5 3.21428,-2.5"
       id="path3516"
       inkscape:connector-curvature="0" />
    <path
       style="fill:none;stroke:#000000;stroke-width:1px;stroke-linecap:butt;stroke-linejoin:miter;stroke-opacity:1"
       d="m 317.85714,158.07647 c -0.84082,-2.45534 3.30273,-3.21429 5.35715,-3.21429 3.22934,-2.18756 3.21887,7.61752 5.71428,6.78572 1.62051,-0.54017 5.4178,-5.65363 3.57143,-7.5 -0.58789,-0.58789 -0.0256,1.37744 0,1.42857"
       id="path3518"
       inkscape:connector-curvature="0" />
    <path
       style="fill:none;stroke:#000000;stroke-width:1px;stroke-linecap:butt;stroke-linejoin:miter;stroke-opacity:1"
       d="m 326.78571,156.29075 c 1.37799,3.31229 4.61706,8.1635 8.57143,5 2.79539,-2.2363 3.60307,-5.97651 2.5,-9.28571 -0.33671,-1.01015 -2.18149,-2.10422 -1.42857,-2.85714 0.0584,-0.0584 0.67781,1.31915 0.71429,1.42857"
       id="path3520"
       inkscape:connector-curvature="0" />
  </g>
</svg>
